<svg width="15" height="15" fill="none" xmlns="http://www.w3.org/2000/svg"><g opacity=".8" clip-path="url(#clip0)"><path d="M.092 7.72l4.687 4.688a.313.313 0 00.533-.22v-.626a.312.312 0 00-.091-.22L2.004 8.125h12.684c.172 0 .312-.14.312-.313v-.625a.312.312 0 00-.313-.312H2.005l3.217-3.217a.312.312 0 00.091-.22v-.626a.312.312 0 00-.533-.22L.092 7.279a.312.312 0 000 .442z" fill="#11725D"/></g><defs><clipPath id="clip0"><path fill="#fff" transform="rotate(-180 7.5 7.5)" d="M0 0h15v15H0z"/></clipPath></defs></svg>