<svg width="20" height="20" fill="none" xmlns="http://www.w3.org/2000/svg"><path d="M9.088 2.94c.298-.922 1.604-.922 1.903 0l1.06 3.278a1 1 0 00.951.692h3.44c.968 0 1.371 1.237.59 1.808l-2.79 2.036a1 1 0 00-.363 1.115l1.064 3.289c.299.922-.758 1.687-1.54 1.116l-2.774-2.024a1 1 0 00-1.18 0l-2.773 2.024c-.783.57-1.84-.194-1.54-1.116l1.063-3.289a1 1 0 00-.362-1.115l-2.79-2.036c-.782-.57-.378-1.808.59-1.808h3.44a1 1 0 00.95-.692l1.06-3.277z" fill="#F8A502"/><mask id="a" maskUnits="userSpaceOnUse" x="10" y="0" width="10" height="18"><path d="M10.038 0h9.957v17.6h-9.957V0z" fill="#C4C4C4"/></mask><g mask="url(#a)"><path opacity=".8" d="M9.086 2.94c.299-.922 1.605-.922 1.903 0l1.06 3.278a1 1 0 00.952.692h3.44c.967 0 1.37 1.237.59 1.808l-2.791 2.036a1 1 0 00-.362 1.115l1.064 3.289c.298.922-.758 1.687-1.541 1.116l-2.774-2.024a1 1 0 00-1.179 0l-2.773 2.024c-.783.57-1.84-.194-1.541-1.116l1.064-3.289a1 1 0 00-.362-1.115l-2.79-2.036c-.782-.57-.379-1.808.589-1.808h3.44a1 1 0 00.951-.692l1.06-3.277z" fill="#EDF1F0"/></g></svg>