<svg width="36" height="36" fill="none" xmlns="http://www.w3.org/2000/svg"><path d="M18.452 24.004a2.505 2.505 0 00-2.507 2.497A2.506 2.506 0 0018.452 29a2.506 2.506 0 002.507-2.498 2.505 2.505 0 00-2.507-2.498zm6.117-3.404a8.594 8.594 0 00-6.116-2.529 8.6 8.6 0 00-6.1 2.514 1.682 1.682 0 001.194 2.876c.45 0 .874-.175 1.193-.492a5.234 5.234 0 013.713-1.53c1.407 0 2.73.547 3.723 1.54.32.318.744.494 1.196.494a1.681 1.681 0 001.196-2.873zm7.855-7.83A19.66 19.66 0 0018.453 7a19.656 19.656 0 00-13.959 5.757A1.681 1.681 0 005.69 15.63a1.68 1.68 0 001.194-.492 16.294 16.294 0 0111.57-4.772c4.375 0 8.488 1.698 11.58 4.783.32.319.744.494 1.196.494a1.681 1.681 0 001.195-2.874z" fill="#F8F8F8"/><path d="M28.396 16.783a13.986 13.986 0 00-9.944-4.108 13.99 13.99 0 00-9.93 4.094 1.67 1.67 0 00-.496 1.19c0 .45.176.873.495 1.191.319.319.743.494 1.195.494.45 0 .875-.175 1.194-.492a10.625 10.625 0 017.542-3.11c2.853 0 5.535 1.109 7.552 3.121.32.319.744.494 1.196.494a1.68 1.68 0 001.194-.492c.32-.318.496-.74.496-1.19 0-.45-.175-.873-.494-1.192z" fill="#F8F8F8"/></svg>