<?xml version="1.0" encoding="utf-8"?><svg xmlns="http://www.w3.org/2000/svg" xmlns:xlink="http://www.w3.org/1999/xlink"><symbol fill="none" viewBox="0 0 180 57" id="AppStore" xmlns="http://www.w3.org/2000/svg"><path d="M174.375 56H5.625C3.096 56 1 53.895 1 51.3V5.7C1 3.105 3.096 1 5.625 1h168.75C176.904 1 179 3.105 179 5.7v45.6c0 2.595-2.096 4.7-4.625 4.7z" fill="#F8F8F8" stroke="#444" stroke-width="2"/><path d="M39.95 40.042h-.001l-.007.011c-.705 1.072-1.414 2.093-2.226 2.848-.803.747-1.671 1.202-2.7 1.202-1.056 0-1.737-.3-2.523-.646l-.053-.024c-.826-.364-1.747-.755-3.19-.755-1.43 0-2.38.348-3.23.697l-.204.083c-.755.312-1.419.586-2.363.646-.922.059-1.775-.402-2.63-1.216-.814-.778-1.56-1.809-2.305-2.84l-.108-.148c-1.435-2.15-2.707-5.18-3.24-8.33-.533-3.158-.315-6.377 1.155-8.949 1.47-2.573 3.987-4.165 6.737-4.165 1.02 0 2.03.356 3.015.748l.33.132c.37.15.738.298 1.082.415.446.152.904.272 1.34.272.412 0 .891-.146 1.36-.314.242-.088.5-.188.764-.291l.023-.01c.259-.1.526-.205.802-.306 1.147-.423 2.389-.778 3.602-.65 1.052.134 3.722.511 5.68 2.96a9.78 9.78 0 00-1.629 1.53c-.984 1.167-1.962 2.916-1.962 5.274 0 2.803 1.24 4.673 2.496 5.85.624.586 1.25 1 1.728 1.276.182.105.343.19.473.257a14.543 14.543 0 01-.44 1.188c-.377.902-.958 2.08-1.777 3.255zm2.304-4.76l.001-.006-.001.007z" fill="#444" stroke="#444"/><path d="M56.981 18.746c-.766 0-1.43-.037-1.981-.098v-8.111a15.372 15.372 0 012.333-.171c3.16 0 4.616 1.516 4.616 3.988 0 2.852-1.72 4.392-4.968 4.392zm.463-7.34c-.426 0-.79.025-1.09.085v6.166c.162.025.475.036.915.036 2.07 0 3.249-1.15 3.249-3.302 0-1.92-1.066-2.985-3.074-2.985zm9.04 7.402c-1.78 0-2.935-1.297-2.935-3.058 0-1.836 1.179-3.144 3.036-3.144 1.756 0 2.936 1.235 2.936 3.046 0 1.859-1.216 3.156-3.037 3.156zm.052-5.237c-.978 0-1.605.893-1.605 2.14 0 1.225.64 2.117 1.592 2.117.953 0 1.593-.954 1.593-2.141 0-1.21-.627-2.116-1.58-2.116zm13.142-.843l-1.907 5.945H76.53l-.79-2.582a19.175 19.175 0 01-.49-1.92h-.025c-.1.648-.288 1.298-.489 1.92l-.84 2.582H72.64l-1.794-5.945h1.392l.69 2.826c.163.673.3 1.309.414 1.909h.026c.1-.5.262-1.126.501-1.896l.866-2.838h1.104l.829 2.777c.2.674.363 1.334.49 1.958h.036c.087-.611.226-1.26.413-1.958l.74-2.777 1.33-.001zm7.019 5.945h-1.355v-3.414c0-1.051-.414-1.578-1.23-1.578-.802 0-1.354.673-1.354 1.456v3.536h-1.355v-4.246c0-.525-.012-1.089-.05-1.7h1.192l.063.917h.038c.364-.635 1.103-1.038 1.932-1.038 1.28 0 2.12.954 2.12 2.507l-.001 3.56zm3.735 0h-1.356V10h1.356v8.673zm4.94.135c-1.78 0-2.936-1.297-2.936-3.058 0-1.836 1.178-3.144 3.035-3.144 1.756 0 2.935 1.235 2.935 3.046.001 1.859-1.216 3.156-3.035 3.156zm.05-5.237c-.979 0-1.606.893-1.606 2.14 0 1.225.641 2.117 1.591 2.117.954 0 1.593-.954 1.593-2.141.001-1.21-.624-2.116-1.579-2.116zm8.325 5.102l-.098-.685h-.036c-.414.551-1.018.82-1.783.82-1.092 0-1.868-.747-1.868-1.75 0-1.467 1.304-2.226 3.563-2.226v-.11c0-.783-.426-1.175-1.266-1.175-.601 0-1.128.148-1.592.441l-.275-.868c.563-.343 1.266-.514 2.092-.514 1.593 0 2.397.819 2.397 2.46v2.189c0 .6.027 1.065.087 1.42l-1.221-.002zm-.186-2.961c-1.505 0-2.26.355-2.26 1.199 0 .624.389.929.93.929.689 0 1.33-.513 1.33-1.21v-.918zm7.898 2.96l-.064-.953h-.037c-.389.72-1.043 1.089-1.957 1.089-1.47 0-2.558-1.26-2.558-3.034 0-1.86 1.128-3.17 2.669-3.17.815 0 1.393.269 1.719.808h.027V10h1.356v7.07c0 .575.014 1.114.05 1.603h-1.205zm-.201-3.497c0-.832-.565-1.542-1.427-1.542-1.004 0-1.618.869-1.618 2.091 0 1.2.637 2.02 1.591 2.02.852 0 1.454-.723 1.454-1.578v-.991zm9.953 3.633c-1.78 0-2.934-1.297-2.934-3.058 0-1.836 1.179-3.144 3.035-3.144 1.756 0 2.935 1.235 2.935 3.046.002 1.859-1.215 3.156-3.036 3.156zm.051-5.237c-.978 0-1.605.893-1.605 2.14 0 1.225.64 2.117 1.592 2.117.954 0 1.592-.954 1.592-2.141.003-1.21-.624-2.116-1.579-2.116zm10.27 5.102h-1.355v-3.414c0-1.051-.414-1.578-1.23-1.578-.803 0-1.353.673-1.353 1.456v3.536h-1.356v-4.246c0-.525-.013-1.089-.05-1.7h1.191l.064.917h.038c.362-.635 1.103-1.04 1.93-1.04 1.28 0 2.121.955 2.121 2.508v3.56zm9.115-4.954h-1.491v2.886c0 .735.261 1.102.788 1.102.239 0 .44-.025.602-.062l.037 1.004c-.262.098-.614.148-1.051.148-1.068 0-1.706-.575-1.706-2.08v-2.998h-.889v-.991h.889v-1.09l1.33-.391v1.48h1.491v.992zm7.17 4.954h-1.353v-3.389c0-1.064-.412-1.602-1.23-1.602-.701 0-1.355.465-1.355 1.407v3.584h-1.353V10h1.353v3.571h.027c.427-.648 1.045-.967 1.833-.967 1.29 0 2.078.979 2.078 2.533v3.536zm7.347-2.655h-4.065c.027 1.126.79 1.761 1.922 1.761.6 0 1.153-.098 1.642-.281l.21.918c-.576.244-1.255.367-2.044.367-1.907 0-3.035-1.175-3.035-2.997 0-1.823 1.155-3.193 2.883-3.193 1.557 0 2.534 1.126 2.534 2.826.008.201-.007.402-.047.6zm-1.242-.942c0-.917-.474-1.565-1.34-1.565-.778 0-1.394.66-1.481 1.565h2.821z" fill="#444"/><path d="M30.75 12.443l.017-.019.014-.02c.503-.7 1.275-1.295 2.14-1.733a7.618 7.618 0 012.03-.696c-.026 1.777-.756 3.45-1.733 4.818-1.104 1.234-2.719 2.185-4.215 2.244-.076-1.689.766-3.476 1.748-4.594zM64.395 39.076l-.11-.351h-5.894l-.104.362-1.245 4.36H55.53l4.828-15.03h.67l-.298 1.516c-.12.61-.362 1.71-.723 2.932l-1.348 4.22-.208.652H64.112l-.208-.652-1.35-4.225h0v-.004c-.037-.11-.085-.292-.153-.553l-.13-.493a36.34 36.34 0 00-.576-1.936l-.479-1.457h1.596l4.6 15.03h-1.655l-1.362-4.37zM72.37 42.704v5.589h-1.576V36.359c0-1.074 0-2.166-.081-3.344h1.197l.092 1.397.102 1.54.82-1.307c.772-1.229 1.843-1.878 3.379-1.878 1.202 0 2.155.431 2.914 1.42l.028.036.034.03c.967.872 1.428 2.083 1.428 3.854 0 1.89-.46 3.25-1.459 4.38-.888.896-1.863 1.333-3.19 1.333-1.353 0-2.252-.447-2.75-1.356l-.939.24zm6.762-4.597c0-1.162-.249-2.28-.83-3.027-.593-.89-1.49-1.325-2.613-1.325-.744 0-1.46.298-2.019.723-.588.447-1.013 1.166-1.163 1.886a2.697 2.697 0 00-.138.873v1.988c0 .99.288 1.719.843 2.422.61.773 1.512 1.06 2.355 1.06 1.12 0 2.017-.434 2.61-1.321.703-.868.955-1.988.955-3.28zM85.491 42.704v5.589h-1.575V36.359c0-1.074 0-2.166-.081-3.344h1.198l.091 1.397.102 1.54.82-1.307c.772-1.229 1.843-1.878 3.379-1.878 1.202 0 2.155.431 2.914 1.42l.028.036.034.03c.967.872 1.429 2.083 1.429 3.854 0 1.89-.461 3.25-1.46 4.38-.888.896-1.863 1.333-3.19 1.333-1.353 0-2.252-.447-2.75-1.356l-.939.24zm6.763-4.597c0-1.162-.249-2.28-.83-3.027-.593-.89-1.49-1.325-2.613-1.325-.744 0-1.46.298-2.019.723-.588.447-1.013 1.166-1.163 1.886a2.697 2.697 0 00-.138.873v1.988c0 .99.288 1.719.844 2.422.61.773 1.51 1.06 2.354 1.06 1.12 0 2.017-.434 2.61-1.321.704-.868.955-1.988.955-3.28zM99.946 42.965l.335-1.153a7.798 7.798 0 003.368.77c1.062 0 1.912-.269 2.51-.723l.028-.021.025-.025c.57-.578.88-1.198.88-2.091 0-.736-.286-1.489-.758-1.967-.57-.578-1.393-.982-2.385-1.359h0l-.011-.004c-2.712-.956-3.836-2.433-3.836-4.126 0-1.215.423-2.075 1.303-2.856.861-.763 1.953-1.117 3.593-1.117 1.218 0 2.147.177 2.956.518l-.326 1.121c-.805-.354-1.705-.527-2.753-.527-.949 0-1.796.274-2.387.724l-.028.021-.025.026a2.57 2.57 0 00-.758 1.842c0 .783.322 1.4.88 1.966.246.25.618.467 1.019.67a31.565 31.565 0 001.462.678l.016.007.016.006a7.756 7.756 0 012.839 1.826c.326.565.635 1.33.635 2.302 0 1.235-.438 2.227-1.205 3.004-.841.853-2.147 1.218-3.935 1.218-1.457 0-2.602-.28-3.458-.73zM112.61 30.649l1.452-.442v2.684h2.821v.988h-2.821v6.091c0 .73.129 1.376.456 1.852.348.508.879.76 1.516.76h.014c.217 0 .432 0 .626-.013l.064 1.039c-.328.08-.763.087-1.44.087-.922 0-1.588-.236-1.937-.68l-.018-.021-.019-.02c-.467-.473-.714-1.29-.714-2.755v-6.34h-1.717v-.988h1.717v-2.242zM120.804 34.233l.01-.01.01-.011c.873-.995 2.199-1.57 3.793-1.57 1.576 0 2.781.562 3.66 1.557.781 1.024 1.236 2.278 1.236 3.908 0 1.639-.459 3-1.338 4.008-1.012 1.02-2.231 1.58-3.803 1.58-1.582 0-2.791-.566-3.671-1.57-.89-1.014-1.347-2.26-1.347-3.894 0-1.644.461-2.996 1.45-3.998zm6.184 7.02l.005-.007.004-.007c.556-.845.818-1.941.818-3.008 0-1.191-.262-2.157-.809-2.995a3.122 3.122 0 00-2.757-1.606 3.12 3.12 0 00-2.756 1.607c-.55.843-.809 1.933-.809 2.994 0 1.19.262 2.156.809 2.994a3.12 3.12 0 002.756 1.606c1.192 0 2.063-.62 2.739-1.578zM134.892 35.187l-.021.027-.017.028a4.832 4.832 0 00-.683 2.492v5.588h-1.575v-7.47c0-1.135 0-2.121-.074-3.086h1.186l.096 1.764.026.473h.958l.113-.344c.204-.62.614-1.161 1.064-1.624.558-.333 1.061-.517 1.527-.517H137.605v1.498a3.106 3.106 0 00-2.713 1.171zM141.783 38.228h-.5v.5c0 1.24.414 2.26 1.281 2.991h0l.008.007c.692.56 1.659.981 2.767.981.912 0 1.862-.082 2.695-.332l.164.773c-.936.362-1.981.547-3.227.547-1.625 0-2.937-.469-3.793-1.445l-.01-.01-.01-.011c-.861-.873-1.327-2.22-1.327-3.874 0-1.644.462-3.023 1.243-4.042.877-1.11 2.075-1.67 3.652-1.67 1.465 0 2.625.564 3.248 1.618l.023.038.029.034c.745.863.982 1.963.982 3.277 0 .255 0 .45-.013.611l-.001.007h-7.211zm5.335-3.483l-.006-.01-.006-.01c-.277-.42-.606-.762-1.011-.996a2.675 2.675 0 00-1.369-.347c-1.038 0-1.787.465-2.354 1.184l-.005.006-.005.006c-.435.588-.698 1.423-.827 2.205l-.096.581H147.178v-.376h.5v-.624h-.031a3.892 3.892 0 00-.529-1.619z" fill="#444" stroke="#444"/></symbol><symbol fill="none" viewBox="0 0 180 57" id="GooglePlay" xmlns="http://www.w3.org/2000/svg"><path d="M174.375 56H5.625C3.096 56 1 53.895 1 51.3V5.7C1 3.105 3.096 1 5.625 1h168.75C176.904 1 179 3.105 179 5.7v45.6c0 2.595-2.096 4.7-4.625 4.7z" fill="#F8F8F8" stroke="#444" stroke-width="2"/><mask id="ba" fill="#fff"><path fill-rule="evenodd" clip-rule="evenodd" d="M95.366 46.934c-.62-.501-1.114-1.379-1.361-1.88l1.98-.878c.123.25.37.627.618 1.003.495.502 1.237 1.003 1.98 1.003.742 0 1.608-.376 2.103-1.003.371-.627.618-1.254.618-2.131v-.753c-1.484 1.881-4.578 1.63-6.31-.376-1.856-2.006-1.856-5.39 0-7.397 1.856-1.88 4.578-2.131 6.187-.376v-.877h2.103v9.403c0 2.382-.866 3.76-1.98 4.638-.742.627-1.856.878-2.845.878-1.114-.125-2.227-.502-3.093-1.254zm51.839.502l2.104-5.015-3.712-8.65h2.103l2.599 6.142 2.598-6.143H155l-5.691 13.666h-2.104zm-10.021-4.764c-.619-.627-.866-1.505-.866-2.383 0-.752.247-1.504.742-2.006.866-.877 2.103-1.253 3.464-1.253.866 0 1.609.125 2.227.501 0-1.504-1.237-2.131-2.227-2.131-.866 0-1.732.502-2.103 1.38l-1.856-.753c.371-.878 1.361-2.508 3.836-2.508 1.237 0 2.474.377 3.217 1.254.742.878.989 1.88.989 3.26v5.265h-2.103v-.877c-.247.376-.742.627-1.114.877-.494.251-1.113.377-1.732.377-.742-.126-1.855-.377-2.474-1.003zM71.24 38.158c0-2.507 1.855-5.266 5.196-5.266 3.217 0 5.196 2.759 5.196 5.266 0 2.508-1.856 5.266-5.196 5.266s-5.196-2.758-5.196-5.266zm11.135 0c0-2.507 1.856-5.266 5.196-5.266 3.217 0 5.196 2.759 5.196 5.266 0 2.508-1.855 5.266-5.196 5.266-3.217 0-5.196-2.758-5.196-5.266zm-25.116 2.758c-3.093-3.134-2.97-8.274.124-11.534C58.99 27.752 60.97 27 63.073 27c1.98 0 3.96.752 5.445 2.257l-1.485 1.63c-2.227-2.257-5.815-2.132-7.918.125a6.116 6.116 0 000 8.4c2.227 2.382 5.938 2.507 8.165.125.743-.752.99-1.755 1.114-2.758h-5.196v-2.257h7.3c.123.502.123 1.129.123 1.756 0 1.88-.742 3.76-1.98 5.014-1.36 1.38-3.34 2.132-5.32 2.132-2.227-.126-4.454-.878-6.062-2.508zm52.335.878c-1.856-2.006-1.856-5.391 0-7.522 1.856-2.006 4.949-2.006 6.681 0 .618.627.99 1.504 1.361 2.382l-6.805 2.883a2.639 2.639 0 002.474 1.63c1.114 0 1.856-.376 2.599-1.504l1.855 1.253c-.247.251-.494.502-.618.753-2.103 2.13-5.691 2.13-7.547.125zm12.867 1.504V29.382h4.454c2.598 0 4.701 1.88 4.701 4.137 0 2.257-1.855 4.138-4.206 4.138h-2.722v5.516h-2.227v.125zm10.393 0V29.382h2.103v13.916h-2.103zm-27.962-.25V27.5h2.227v15.547h-2.227zm37.736-3.887c-.495-.376-1.237-.501-1.98-.501-1.485 0-2.351.752-2.351 1.63 0 .877.866 1.379 1.733 1.379 1.237 0 2.598-1.003 2.598-2.508zm-63.346-1.003c0-1.504-.99-3.134-2.846-3.134s-2.846 1.63-2.846 3.134c0 1.505.99 3.134 2.846 3.134 1.732 0 2.846-1.63 2.846-3.134zm11.135 0c0-1.504-.99-3.134-2.846-3.134s-2.846 1.63-2.846 3.134c0 1.505.99 3.134 2.846 3.134s2.846-1.63 2.846-3.134zm11.011.878c0-.126 0-.251.124-.376v-.502-.627c0-.125-.124-.376-.124-.501-.371-1.254-1.485-2.132-2.598-2.132-1.485 0-2.722 1.505-2.722 3.135 0 1.755 1.237 3.134 2.846 3.134.99.125 1.979-.752 2.474-2.131zm9.032-1.129l4.578-2.005c-.495-.878-1.238-1.129-1.856-1.129-1.856.125-2.97 2.131-2.722 3.134zm18.929-4.262c0-1.254-.989-2.132-2.35-2.132h-2.475v4.388h2.598c1.238 0 2.227-1.003 2.227-2.256z"/></mask><path fill-rule="evenodd" clip-rule="evenodd" d="M95.366 46.934c-.62-.501-1.114-1.379-1.361-1.88l1.98-.878c.123.25.37.627.618 1.003.495.502 1.237 1.003 1.98 1.003.742 0 1.608-.376 2.103-1.003.371-.627.618-1.254.618-2.131v-.753c-1.484 1.881-4.578 1.63-6.31-.376-1.856-2.006-1.856-5.39 0-7.397 1.856-1.88 4.578-2.131 6.187-.376v-.877h2.103v9.403c0 2.382-.866 3.76-1.98 4.638-.742.627-1.856.878-2.845.878-1.114-.125-2.227-.502-3.093-1.254zm51.839.502l2.104-5.015-3.712-8.65h2.103l2.599 6.142 2.598-6.143H155l-5.691 13.666h-2.104zm-10.021-4.764c-.619-.627-.866-1.505-.866-2.383 0-.752.247-1.504.742-2.006.866-.877 2.103-1.253 3.464-1.253.866 0 1.609.125 2.227.501 0-1.504-1.237-2.131-2.227-2.131-.866 0-1.732.502-2.103 1.38l-1.856-.753c.371-.878 1.361-2.508 3.836-2.508 1.237 0 2.474.377 3.217 1.254.742.878.989 1.88.989 3.26v5.265h-2.103v-.877c-.247.376-.742.627-1.114.877-.494.251-1.113.377-1.732.377-.742-.126-1.855-.377-2.474-1.003zM71.24 38.158c0-2.507 1.855-5.266 5.196-5.266 3.217 0 5.196 2.759 5.196 5.266 0 2.508-1.856 5.266-5.196 5.266s-5.196-2.758-5.196-5.266zm11.135 0c0-2.507 1.856-5.266 5.196-5.266 3.217 0 5.196 2.759 5.196 5.266 0 2.508-1.855 5.266-5.196 5.266-3.217 0-5.196-2.758-5.196-5.266zm-25.116 2.758c-3.093-3.134-2.97-8.274.124-11.534C58.99 27.752 60.97 27 63.073 27c1.98 0 3.96.752 5.445 2.257l-1.485 1.63c-2.227-2.257-5.815-2.132-7.918.125a6.116 6.116 0 000 8.4c2.227 2.382 5.938 2.507 8.165.125.743-.752.99-1.755 1.114-2.758h-5.196v-2.257h7.3c.123.502.123 1.129.123 1.756 0 1.88-.742 3.76-1.98 5.014-1.36 1.38-3.34 2.132-5.32 2.132-2.227-.126-4.454-.878-6.062-2.508zm52.335.878c-1.856-2.006-1.856-5.391 0-7.522 1.856-2.006 4.949-2.006 6.681 0 .618.627.99 1.504 1.361 2.382l-6.805 2.883a2.639 2.639 0 002.474 1.63c1.114 0 1.856-.376 2.599-1.504l1.855 1.253c-.247.251-.494.502-.618.753-2.103 2.13-5.691 2.13-7.547.125zm12.867 1.504V29.382h4.454c2.598 0 4.701 1.88 4.701 4.137 0 2.257-1.855 4.138-4.206 4.138h-2.722v5.516h-2.227v.125zm10.393 0V29.382h2.103v13.916h-2.103zm-27.962-.25V27.5h2.227v15.547h-2.227zm37.736-3.887c-.495-.376-1.237-.501-1.98-.501-1.485 0-2.351.752-2.351 1.63 0 .877.866 1.379 1.733 1.379 1.237 0 2.598-1.003 2.598-2.508zm-63.346-1.003c0-1.504-.99-3.134-2.846-3.134s-2.846 1.63-2.846 3.134c0 1.505.99 3.134 2.846 3.134 1.732 0 2.846-1.63 2.846-3.134zm11.135 0c0-1.504-.99-3.134-2.846-3.134s-2.846 1.63-2.846 3.134c0 1.505.99 3.134 2.846 3.134s2.846-1.63 2.846-3.134zm11.011.878c0-.126 0-.251.124-.376v-.502-.627c0-.125-.124-.376-.124-.501-.371-1.254-1.485-2.132-2.598-2.132-1.485 0-2.722 1.505-2.722 3.135 0 1.755 1.237 3.134 2.846 3.134.99.125 1.979-.752 2.474-2.131zm9.032-1.129l4.578-2.005c-.495-.878-1.238-1.129-1.856-1.129-1.856.125-2.97 2.131-2.722 3.134zm18.929-4.262c0-1.254-.989-2.132-2.35-2.132h-2.475v4.388h2.598c1.238 0 2.227-1.003 2.227-2.256z" fill="#444" stroke="#444" stroke-width="2" mask="url(#ba)"/><path d="M62.598 15.194c0 1.017-.254 1.907-.887 2.542-.76.763-1.646 1.144-2.786 1.144-1.14 0-2.026-.381-2.785-1.144-.76-.762-1.14-1.652-1.14-2.796s.38-2.034 1.14-2.796C56.9 11.38 57.786 11 58.925 11c.507 0 1.013.127 1.52.381.507.255.886.509 1.14.89l-.633.635c-.507-.635-1.14-.89-2.027-.89-.76 0-1.52.255-2.026.89-.633.509-.886 1.271-.886 2.161 0 .89.253 1.652.886 2.16.633.51 1.267.89 2.026.89.887 0 1.52-.254 2.153-.89.38-.38.633-.889.633-1.524h-2.786v-1.017h3.673v.508zm5.824-3.177h-3.418v2.415h3.165v.89h-3.165v2.414h3.418v1.017h-4.431v-7.626h4.431v.89zm4.18 6.736h-1.014v-6.736h-2.152v-.89h5.318v.89H72.6v6.736zm5.824 0v-7.626h1.013v7.626h-1.013zm5.318 0h-1.013v-6.736H80.58v-.89h5.191v.89h-2.152v6.736h.126zm12.03-1.017c-.76.763-1.646 1.144-2.786 1.144-1.14 0-2.026-.381-2.786-1.144-.76-.762-1.14-1.652-1.14-2.796s.38-2.034 1.14-2.796C90.962 11.38 91.85 11 92.988 11c1.14 0 2.026.381 2.786 1.144.76.762 1.14 1.652 1.14 2.796s-.38 2.034-1.14 2.796zm-4.812-.635c.507.508 1.266.89 2.026.89.76 0 1.52-.255 2.026-.89a3.072 3.072 0 00.887-2.161c0-.89-.254-1.652-.887-2.16-.506-.51-1.266-.89-2.026-.89-.76 0-1.52.254-2.026.89a3.072 3.072 0 00-.886 2.16c0 .89.253 1.652.886 2.16zm7.344 1.652v-7.626h1.14l3.672 5.974v-5.974h1.013v7.626h-1.013l-3.925-6.228v6.228h-.886z" fill="#444"/><g clip-path="url(#bclip0)" fill="#444" stroke="#444"><path d="M20.161 13.915l.013.008.014.007 16.585 8.718-3.97 3.73-13.667-12.84c.36.059.709.185 1.025.377zM15.918 16.046c0-.368.087-.726.248-1.053L30.544 28.5 16.166 42.006a2.368 2.368 0 01-.248-1.053V16.046zM35.062 28.5l4.608-4.33 4.02 2.114c.886.465 1.393 1.295 1.393 2.216 0 .92-.507 1.75-1.392 2.216l-4.02 2.113-4.609-4.33zM20.188 43.069l-.013.007-.014.008a2.87 2.87 0 01-1.026.377l13.668-12.84 3.97 3.73-16.585 8.718z"/></g><defs><clipPath id="bclip0"><path fill="#fff" transform="translate(14 13)" d="M0 0h33v31H0z"/></clipPath></defs></symbol><symbol fill="none" viewBox="0 0 18 12" id="Group" xmlns="http://www.w3.org/2000/svg"><path d="M18 2.597h-3.172a8.837 8.837 0 00-11.655 0H0s.72.877 1.012 1.699A4.38 4.38 0 000 7.096c0 2.487 2.014 4.5 4.5 4.5 1.474 0 2.779-.72 3.6-1.822l.945 1.823.866-1.811c.822 1.09 2.115 1.81 3.589 1.81 2.486 0 4.5-2.013 4.5-4.5a4.38 4.38 0 00-1.012-2.8c.292-.822 1.012-1.7 1.012-1.7zM4.5 10.472a3.385 3.385 0 01-3.375-3.375A3.385 3.385 0 014.5 3.722a3.385 3.385 0 013.375 3.375A3.385 3.385 0 014.5 10.472zm9 0a3.385 3.385 0 01-3.375-3.375A3.385 3.385 0 0113.5 3.722a3.385 3.385 0 013.375 3.375 3.385 3.385 0 01-3.375 3.375z" fill="#444"/></symbol><symbol fill="none" viewBox="0 0 10 10" id="caret-down" xmlns="http://www.w3.org/2000/svg"><path d="M9.814 2.373a.6.6 0 00-.44-.186H.626a.6.6 0 00-.44.186.601.601 0 00-.185.44.6.6 0 00.186.439L4.56 7.627c.124.124.27.186.44.186a.6.6 0 00.44-.186l4.374-4.375a.601.601 0 00.186-.44.602.602 0 00-.186-.439z" fill="#444"/></symbol><symbol fill="none" viewBox="0 0 18 18" id="facebook" xmlns="http://www.w3.org/2000/svg"><path d="M10.394 18V9.79h2.755l.413-3.2h-3.168V4.545c0-.926.256-1.557 1.586-1.557l1.694-.001V.125A22.96 22.96 0 0011.205 0C8.762 0 7.09 1.491 7.09 4.23v2.36H4.327v3.2H7.09V18h3.304z" fill="#444"/></symbol><symbol fill="none" viewBox="0 0 18 18" id="instagram" xmlns="http://www.w3.org/2000/svg"><path d="M12.375 0h-6.75A5.626 5.626 0 000 5.625v6.75A5.626 5.626 0 005.625 18h6.75A5.626 5.626 0 0018 12.375v-6.75A5.626 5.626 0 0012.375 0zm3.938 12.375a3.942 3.942 0 01-3.938 3.938h-6.75a3.942 3.942 0 01-3.938-3.938v-6.75a3.942 3.942 0 013.938-3.938h6.75a3.942 3.942 0 013.938 3.938v6.75z" fill="#444"/><path d="M9 4.5a4.5 4.5 0 100 9 4.5 4.5 0 000-9zm0 7.313A2.816 2.816 0 016.187 9 2.816 2.816 0 019 6.188 2.816 2.816 0 0111.813 9 2.816 2.816 0 019 11.813zM13.837 4.762a.6.6 0 100-1.199.6.6 0 000 1.2z" fill="#444"/></symbol><symbol fill="none" viewBox="0 0 18 18" id="linkedin" xmlns="http://www.w3.org/2000/svg"><g clip-path="url(#gclip0)" fill="#444"><path d="M17.995 18H18v-6.602c0-3.23-.695-5.718-4.47-5.718-1.816 0-3.034.996-3.531 1.94h-.053V5.983h-3.58v12.017h3.728v-5.95c0-1.567.297-3.082 2.237-3.082 1.912 0 1.94 1.788 1.94 3.182V18h3.724zM.297 5.983H4.03V18H.297V5.983zM2.162 0A2.162 2.162 0 000 2.162c0 1.193.968 2.181 2.162 2.181 1.193 0 2.161-.988 2.161-2.181A2.163 2.163 0 002.161 0z"/></g><defs><clipPath id="gclip0"><path fill="#fff" d="M0 0h18v18H0z"/></clipPath></defs></symbol><symbol fill="none" viewBox="0 0 18 18" id="pinterest" xmlns="http://www.w3.org/2000/svg"><path d="M9.245 0C4.312 0 1.688 3.161 1.688 6.609c0 1.598.893 3.592 2.323 4.224.217.098.335.056.384-.145.043-.153.23-.89.322-1.238a.318.318 0 00-.077-.312c-.475-.55-.852-1.55-.852-2.488 0-2.404 1.912-4.739 5.164-4.739 2.813 0 4.78 1.828 4.78 4.441 0 2.953-1.562 4.996-3.593 4.996-1.124 0-1.96-.882-1.695-1.973.32-1.3.95-2.697.95-3.634 0-.84-.475-1.536-1.445-1.536-1.144 0-2.072 1.133-2.072 2.654 0 .967.342 1.62.342 1.62l-1.343 5.426c-.355 1.445.049 3.786.084 3.988.021.111.146.146.216.055.111-.146 1.48-2.098 1.863-3.51l.712-2.598c.377.68 1.465 1.251 2.623 1.251 3.448 0 5.938-3.03 5.938-6.79C16.3 2.697 13.216 0 9.245 0z" fill="#444"/></symbol><symbol fill="none" viewBox="0 0 18 18" id="telegram" xmlns="http://www.w3.org/2000/svg"><path d="M4.331 10.256l2.239 5.597 2.914-2.915 4.998 3.972L18 1.09 0 8.587l4.331 1.67zm8.526-4.627l-5.51 5.025-.686 2.586-1.268-3.17 7.464-4.441z" fill="#444"/></symbol><symbol fill="none" viewBox="0 0 18 18" id="twitter" xmlns="http://www.w3.org/2000/svg"><g clip-path="url(#jclip0)"><path d="M18 3.419a7.693 7.693 0 01-2.126.583 3.67 3.67 0 001.623-2.04c-.713.425-1.5.726-2.34.893a3.689 3.689 0 00-6.383 2.523c0 .293.025.574.085.842a10.445 10.445 0 01-7.606-3.86 3.715 3.715 0 00-.505 1.866c0 1.277.658 2.41 1.64 3.066A3.644 3.644 0 01.72 6.838v.04a3.707 3.707 0 002.957 3.626 3.68 3.68 0 01-.968.122c-.236 0-.475-.014-.699-.063a3.725 3.725 0 003.449 2.57 7.414 7.414 0 01-4.576 1.574c-.302 0-.593-.013-.883-.05a10.389 10.389 0 005.661 1.655c6.79 0 10.503-5.625 10.503-10.5 0-.163-.006-.32-.014-.477A7.362 7.362 0 0018 3.419z" fill="#444"/></g><defs><clipPath id="jclip0"><path fill="#fff" d="M0 0h18v18H0z"/></clipPath></defs></symbol><symbol fill="none" viewBox="0 0 18 18" id="vk" xmlns="http://www.w3.org/2000/svg"><g clip-path="url(#kclip0)"><path d="M14.936 9.771c-.29-.368-.207-.531 0-.86.004-.003 2.406-3.323 2.654-4.448l.001-.001c.123-.41 0-.712-.595-.712H15.03c-.502 0-.732.259-.856.548 0 0-1.002 2.399-2.42 3.954-.457.449-.669.593-.918.593-.124 0-.315-.144-.315-.555V4.463c0-.492-.14-.712-.555-.712H6.871c-.315 0-.501.23-.501.443 0 .467.708.574.782 1.887v2.847c0 .624-.113.739-.365.739-.668 0-2.292-2.408-3.254-5.165-.195-.534-.385-.75-.89-.75H.676C.113 3.75 0 4.01 0 4.299c0 .511.669 3.055 3.111 6.415 1.627 2.293 3.92 3.536 6.005 3.536 1.253 0 1.406-.276 1.406-.75 0-2.192-.114-2.4.514-2.4.291 0 .792.145 1.962 1.251 1.338 1.312 1.557 1.899 2.306 1.899h1.968c.56 0 .845-.276.681-.82-.374-1.146-2.903-3.502-3.017-3.659z" fill="#444"/></g><defs><clipPath id="kclip0"><path fill="#fff" d="M0 0h18v18H0z"/></clipPath></defs></symbol><symbol fill="none" viewBox="0 0 18 18" id="youtube" xmlns="http://www.w3.org/2000/svg"><path d="M17.081 4.782a2.114 2.114 0 00-1.487-1.487c-1.32-.362-6.603-.362-6.603-.362s-5.282 0-6.602.348A2.157 2.157 0 00.9 4.782C.554 6.102.554 8.841.554 8.841s0 2.752.347 4.059a2.114 2.114 0 001.488 1.487c1.334.361 6.602.361 6.602.361s5.282 0 6.603-.347a2.114 2.114 0 001.487-1.487c.348-1.32.348-4.06.348-4.06s.014-2.751-.348-4.072zm-9.772 6.589V6.31l4.393 2.53-4.393 2.53z" fill="#444"/></symbol></svg>