<svg width="180" height="57" viewBox="0 0 180 57" fill="none" xmlns="http://www.w3.org/2000/svg">
<path d="M174.375 56H5.625C3.09598 56 1 53.8952 1 51.3V5.7C1 3.10476 3.09598 1 5.625 1H174.375C176.904 1 179 3.10476 179 5.7V51.3C179 53.8952 176.904 56 174.375 56Z" fill="#F8F8F8" stroke="#444444" stroke-width="2"/>
<path d="M39.9491 40.0423L39.9489 40.0422L39.9416 40.0533C39.2368 41.1245 38.5279 42.1455 37.716 42.9011C36.9132 43.6482 36.0447 44.1031 35.0156 44.1031C33.9596 44.1031 33.279 43.803 32.4933 43.4566L32.4398 43.433C31.614 43.0692 30.6925 42.6781 29.2499 42.6781C27.8191 42.6781 26.8699 43.0261 26.0194 43.3745C25.9506 43.4027 25.8827 43.4307 25.8155 43.4584C25.0613 43.77 24.3971 44.0443 23.4527 44.1041C22.5311 44.1625 21.6777 43.7021 20.8235 42.8875C20.0088 42.1104 19.2633 41.0794 18.518 40.0487C18.4822 39.9992 18.4464 39.9496 18.4105 39.9C16.9753 37.7504 15.7032 34.7208 15.1707 31.5701C14.6369 28.4117 14.8555 25.1927 16.3247 22.6211C17.7947 20.0482 20.312 18.4556 23.0624 18.4556C24.0819 18.4556 25.092 18.8119 26.0767 19.2039C26.1865 19.2476 26.2966 19.292 26.4066 19.3363C26.7766 19.4855 27.1448 19.634 27.4889 19.7514C27.9346 19.9035 28.3928 20.0231 28.8281 20.0231C29.2414 20.0231 29.7203 19.877 30.1883 19.7086C30.4307 19.6213 30.6886 19.5209 30.9528 19.4178L30.9758 19.4088C31.2348 19.3077 31.5017 19.2035 31.7783 19.1016C32.9254 18.6789 34.167 18.3242 35.3796 18.4523C36.4325 18.5858 39.1023 18.9635 41.0609 21.4121C40.9825 21.4706 40.8952 21.5375 40.801 21.6127C40.4199 21.917 39.9242 22.3581 39.4322 22.9413C38.447 24.1093 37.4687 25.8581 37.4687 28.2156C37.4687 31.0189 38.7092 32.8894 39.9646 34.0666C40.5889 34.652 41.2158 35.0657 41.6935 35.3416C41.8752 35.4466 42.0357 35.5318 42.1656 35.5986C42.1571 35.626 42.1479 35.6549 42.138 35.6853C42.05 35.9572 41.9141 36.3362 41.726 36.7867C41.3494 37.6888 40.7678 38.8669 39.9491 40.0423ZM42.254 35.2826C42.2546 35.2784 42.2551 35.2761 42.2551 35.2762C42.2552 35.2762 42.2548 35.2782 42.254 35.2826Z" fill="#444444" stroke="#444444"/>
<path d="M56.9815 18.746C56.215 18.746 55.5519 18.7095 55 18.6477V10.537C55.772 10.4207 56.552 10.3634 57.3331 10.3656C60.4935 10.3656 61.9489 11.8821 61.9489 14.3541C61.9489 17.2056 60.2298 18.746 56.9815 18.746ZM57.4442 11.4056C57.0177 11.4056 56.6545 11.4308 56.3534 11.4913V17.6569C56.5162 17.6821 56.829 17.6934 57.2685 17.6934C59.3391 17.6934 60.518 16.5437 60.518 14.3906C60.518 12.4707 59.4516 11.4056 57.4442 11.4056ZM66.4845 18.8077C64.7034 18.8077 63.5491 17.5106 63.5491 15.7496C63.5491 13.9141 64.728 12.6056 66.5854 12.6056C68.3407 12.6056 69.5209 13.841 69.5209 15.6525C69.5209 17.5106 68.3045 18.8077 66.4845 18.8077ZM66.5363 13.5712C65.5577 13.5712 64.9309 14.4637 64.9309 15.7118C64.9309 16.9358 65.5708 17.8282 66.5234 17.8282C67.476 17.8282 68.1157 16.874 68.1157 15.6865C68.1157 14.4764 67.4889 13.5712 66.5363 13.5712ZM79.6779 12.7279L77.7714 18.6729H76.5293L75.7394 16.0913C75.543 15.4598 75.3795 14.8189 75.2495 14.1714H75.2236C75.1241 14.8193 74.9355 15.4685 74.7351 16.0913L73.8949 18.6729H72.6399L70.8458 12.7279H72.2379L72.9281 15.5542C73.0909 16.2274 73.228 16.8627 73.3418 17.4627H73.3675C73.4671 16.9622 73.6299 16.337 73.8691 15.5667L74.7351 12.7293H75.839L76.6675 15.5062C76.8679 16.1795 77.0307 16.84 77.1574 17.464H77.1936C77.2815 16.8526 77.4198 16.2034 77.6073 15.5062L78.3479 12.7293L79.6779 12.7279ZM86.6966 18.6729H85.342V15.2592C85.342 14.2079 84.9284 13.681 84.1127 13.681C83.31 13.681 82.7581 14.3541 82.7581 15.1369V18.6729H81.4035V14.4272C81.4035 13.9015 81.3906 13.338 81.3531 12.7266H82.5449L82.6083 13.6444H82.6456C83.0101 13.009 83.7495 12.6056 84.5781 12.6056C85.8577 12.6056 86.6979 13.5599 86.6979 15.113L86.6966 18.6729ZM90.4321 18.6729H89.0763V10H90.4321V18.6729ZM95.3711 18.8077C93.5912 18.8077 92.4356 17.5106 92.4356 15.7496C92.4356 13.9141 93.6145 12.6056 95.4706 12.6056C97.2273 12.6056 98.4061 13.841 98.4061 15.6525C98.4074 17.5106 97.1898 18.8077 95.3711 18.8077ZM95.4215 13.5712C94.443 13.5712 93.8161 14.4637 93.8161 15.7118C93.8161 16.9358 94.4572 17.8282 95.4072 17.8282C96.3612 17.8282 96.9997 16.874 96.9997 15.6865C97.001 14.4764 96.3755 13.5712 95.4215 13.5712ZM103.747 18.6729L103.649 17.9884H103.613C103.199 18.5392 102.595 18.8077 101.83 18.8077C100.738 18.8077 99.9624 18.0615 99.9624 17.0581C99.9624 15.5907 101.266 14.8319 103.525 14.8319V14.7222C103.525 13.9394 103.099 13.5474 102.259 13.5474C101.658 13.5474 101.131 13.6947 100.667 13.9885L100.392 13.12C100.955 12.7771 101.658 12.6056 102.484 12.6056C104.077 12.6056 104.881 13.425 104.881 15.0651V17.2547C104.881 17.8547 104.908 18.32 104.968 18.6741L103.747 18.6729ZM103.561 15.7118C102.056 15.7118 101.301 16.0672 101.301 16.9106C101.301 17.5346 101.69 17.8396 102.231 17.8396C102.92 17.8396 103.561 17.3266 103.561 16.6295V15.7118ZM111.459 18.6729L111.395 17.7186H111.358C110.969 18.4397 110.315 18.8077 109.401 18.8077C107.931 18.8077 106.843 17.5473 106.843 15.7735C106.843 13.9141 107.971 12.6044 109.512 12.6044C110.327 12.6044 110.905 12.8729 111.231 13.4124H111.258V10H112.614V17.0708C112.614 17.6455 112.628 18.1838 112.664 18.6729H111.459ZM111.258 15.1748C111.258 14.3428 110.693 13.633 109.831 13.633C108.827 13.633 108.213 14.5016 108.213 15.7244C108.213 16.9233 108.85 17.7439 109.804 17.7439C110.656 17.7439 111.258 17.0215 111.258 16.1656V15.1748ZM121.211 18.8077C119.431 18.8077 118.277 17.5106 118.277 15.7496C118.277 13.9141 119.456 12.6056 121.312 12.6056C123.068 12.6056 124.247 13.841 124.247 15.6525C124.249 17.5106 123.032 18.8077 121.211 18.8077ZM121.262 13.5712C120.284 13.5712 119.657 14.4637 119.657 15.7118C119.657 16.9358 120.297 17.8282 121.249 17.8282C122.203 17.8282 122.841 16.874 122.841 15.6865C122.844 14.4764 122.217 13.5712 121.262 13.5712ZM131.532 18.6729H130.177V15.2592C130.177 14.2079 129.763 13.681 128.947 13.681C128.144 13.681 127.594 14.3541 127.594 15.1369V18.6729H126.238V14.4272C126.238 13.9015 126.225 13.338 126.188 12.7266H127.379L127.443 13.6444H127.481C127.843 13.009 128.584 12.6044 129.411 12.6044C130.691 12.6044 131.532 13.5586 131.532 15.1118V18.6729ZM140.647 13.7187H139.156V16.6055C139.156 17.3405 139.417 17.7073 139.944 17.7073C140.183 17.7073 140.384 17.6821 140.546 17.6455L140.583 18.649C140.321 18.7473 139.969 18.7965 139.532 18.7965C138.464 18.7965 137.826 18.2216 137.826 16.7165V13.7187H136.937V12.7279H137.826V11.6388L139.156 11.2467V12.7266H140.647V13.7187ZM147.817 18.6729H146.464V15.2844C146.464 14.2205 146.052 13.6822 145.234 13.6822C144.533 13.6822 143.879 14.1474 143.879 15.089V18.6729H142.526V10H143.879V13.5712H143.906C144.333 12.9234 144.951 12.6044 145.739 12.6044C147.029 12.6044 147.817 13.5826 147.817 15.1369V18.6729ZM155.164 16.0181H151.099C151.126 17.1437 151.889 17.7791 153.021 17.7791C153.621 17.7791 154.174 17.6809 154.663 17.498L154.873 18.4158C154.297 18.6603 153.618 18.7826 152.829 18.7826C150.922 18.7826 149.794 17.6077 149.794 15.7861C149.794 13.9634 150.949 12.593 152.677 12.593C154.234 12.593 155.211 13.7187 155.211 15.4192C155.219 15.62 155.204 15.821 155.164 16.0181ZM153.922 15.0764C153.922 14.1588 153.448 13.5107 152.582 13.5107C151.804 13.5107 151.188 14.1714 151.101 15.0764H153.922Z" fill="#444444"/>
<path d="M30.7506 12.4425L30.7667 12.4241L30.7809 12.4043C31.2839 11.7035 32.0561 11.1089 32.921 10.6707C33.5954 10.329 34.3054 10.093 34.9517 9.97487C34.9246 11.7523 34.1947 13.425 33.2181 14.7925C32.114 16.0268 30.4993 16.9784 29.0029 17.0369C28.927 15.3484 29.7692 13.5613 30.7506 12.4425Z" fill="#444444" stroke="#444444"/>
<path d="M64.3952 39.0761L64.2858 38.7248H63.9179H58.7677H58.3905L58.2869 39.0875L57.0417 43.4466H55.5296L60.3585 28.4173H61.0288L60.7296 29.9329C60.6093 30.5427 60.368 31.6431 60.0065 32.8649L58.6593 37.0846L58.4511 37.7367H59.1356H63.4274H64.1119L63.9037 37.0846L62.5548 32.8598L62.5549 32.8598L62.5535 32.8557C62.5174 32.7459 62.4694 32.5636 62.4009 32.303C62.3638 32.162 62.3207 31.998 62.2701 31.8102C62.1308 31.2925 61.9442 30.6307 61.6951 29.8735L61.2161 28.4173H62.8123L67.4112 43.4466H65.7573L64.3952 39.0761Z" fill="#444444" stroke="#444444"/>
<path d="M72.3691 42.7043V48.293H70.794V36.3671V36.359C70.794 35.2848 70.794 34.1929 70.7126 33.0151H71.9104L72.0023 34.4118L72.1037 35.9523L72.9247 34.6449C73.6964 33.416 74.7668 32.7666 76.3026 32.7666C77.5048 32.7666 78.4583 33.1982 79.2168 34.1864L79.2447 34.2228L79.2788 34.2535C80.2459 35.1246 80.7075 36.3362 80.7075 38.1067C80.7075 39.9966 80.2469 41.3575 79.2483 42.4867C78.36 43.383 77.3852 43.8197 76.0573 43.8197C74.7047 43.8197 73.806 43.3731 73.3075 42.4639L72.3691 42.7043ZM79.1324 38.1067C79.1324 36.9451 78.883 35.8278 78.3026 35.0804C77.7091 34.1906 76.8115 33.7547 75.6894 33.7547C74.9454 33.7547 74.2287 34.0535 73.6702 34.4779C73.0821 34.9249 72.6573 35.6439 72.5073 36.3642C72.3707 36.7924 72.3691 37.0901 72.3691 37.2369V39.2251C72.3691 40.2145 72.6569 40.9436 73.2124 41.6473C73.8228 42.4205 74.7238 42.7073 75.5668 42.7073C76.687 42.7073 77.5835 42.2729 78.177 41.386C78.8805 40.5178 79.1324 39.3977 79.1324 38.1067Z" fill="#444444" stroke="#444444"/>
<path d="M85.4912 42.7043V48.293H83.9161V36.3671V36.3587C83.9161 35.2846 83.9161 34.1928 83.8347 33.0151H85.0325L85.1244 34.4118L85.2257 35.9523L86.0467 34.6449C86.8185 33.416 87.8889 32.7666 89.4246 32.7666C90.6269 32.7666 91.5804 33.1982 92.3388 34.1864L92.3667 34.2228L92.4008 34.2535C93.3679 35.1246 93.8296 36.3362 93.8296 38.1068C93.8296 39.9966 93.369 41.3575 92.3703 42.4867C91.4821 43.383 90.5073 43.8197 89.1794 43.8197C87.8268 43.8197 86.9281 43.3731 86.4296 42.4639L85.4912 42.7043ZM92.2545 38.1068C92.2545 36.9451 92.005 35.8278 91.4246 35.0804C90.8312 34.1906 89.9335 33.7547 88.8115 33.7547C88.0674 33.7547 87.3507 34.0535 86.7922 34.4779C86.2041 34.9249 85.7793 35.6439 85.6294 36.3642C85.4928 36.7924 85.4912 37.0901 85.4912 37.2369V39.2251C85.4912 40.2145 85.7789 40.9436 86.3345 41.6473C86.9449 42.4205 87.8459 42.7073 88.6889 42.7073C89.8091 42.7073 90.7056 42.2729 91.2991 41.386C92.0026 40.5178 92.2545 39.3977 92.2545 38.1068Z" fill="#444444" stroke="#444444"/>
<path d="M99.9462 42.9646L100.281 41.8123C101.305 42.2973 102.429 42.5827 103.649 42.5827C104.711 42.5827 105.561 42.3135 106.159 41.8595L106.187 41.8379L106.212 41.8126C106.782 41.2346 107.092 40.6155 107.092 39.7218C107.092 38.986 106.806 38.233 106.334 37.7552C105.764 37.1768 104.941 36.7732 103.949 36.3964L103.949 36.3963L103.938 36.3923C101.226 35.4365 100.102 33.9595 100.102 32.2663C100.102 31.0512 100.525 30.1905 101.405 29.4097C102.266 28.6466 103.358 28.293 104.998 28.293C106.216 28.293 107.145 28.47 107.954 28.8112L107.628 29.9324C106.823 29.5777 105.923 29.4054 104.875 29.4054C103.926 29.4054 103.079 29.6791 102.488 30.1286L102.46 30.1501L102.435 30.1755C101.984 30.6323 101.677 31.2522 101.677 32.0178C101.677 32.8014 101.999 33.4183 102.557 33.9843C102.803 34.2337 103.175 34.4507 103.576 34.6538C103.938 34.8373 104.372 35.0325 104.843 35.2441C104.907 35.2729 104.972 35.3021 105.038 35.3316L105.054 35.3388L105.07 35.3449C106.31 35.802 107.219 36.4818 107.909 37.1712C108.235 37.736 108.544 38.5006 108.544 39.4733C108.544 40.7081 108.106 41.7004 107.339 42.477C106.498 43.3296 105.192 43.6951 103.404 43.6951C101.947 43.6951 100.802 43.4154 99.9462 42.9646Z" fill="#444444" stroke="#444444"/>
<path d="M112.61 30.6489L114.062 30.2073V32.3907V32.8907H114.562H116.883V33.8788H114.562H114.062V34.3788V39.9704C114.062 40.6997 114.191 41.3455 114.518 41.8222C114.866 42.3299 115.397 42.5828 116.034 42.5828H116.048C116.265 42.5828 116.48 42.5828 116.674 42.569L116.738 43.608C116.41 43.6885 115.975 43.6952 115.298 43.6952C114.376 43.6952 113.71 43.4585 113.361 43.0156L113.343 42.9939L113.324 42.9742C112.857 42.5012 112.61 41.6835 112.61 40.2189V34.3788V33.8788H112.11H110.893V32.8907H112.11H112.61V32.3907V30.6489Z" fill="#444444" stroke="#444444"/>
<path d="M120.804 34.233L120.814 34.2226L120.824 34.2116C121.697 33.2169 123.023 32.6422 124.617 32.6422C126.193 32.6422 127.398 33.2038 128.277 34.1993C129.058 35.2227 129.513 36.4772 129.513 38.1066C129.513 39.7458 129.054 41.1072 128.175 42.115C127.163 43.1357 125.944 43.6953 124.372 43.6953C122.79 43.6953 121.581 43.1291 120.701 42.1259C119.811 41.1106 119.354 39.8657 119.354 38.2309C119.354 36.5873 119.815 35.2353 120.804 34.233ZM126.988 41.2526L126.993 41.2461L126.997 41.2394C127.553 40.3938 127.815 39.2979 127.815 38.2309C127.815 37.0398 127.553 36.0744 127.006 35.2365C126.426 34.219 125.405 33.6303 124.249 33.6303C123.093 33.6303 122.073 34.2191 121.493 35.2366C120.943 36.0803 120.684 37.1698 120.684 38.2309C120.684 39.4219 120.946 40.3873 121.493 41.2252C122.073 42.2427 123.093 42.8314 124.249 42.8314C125.441 42.8314 126.312 42.211 126.988 41.2526Z" fill="#444444" stroke="#444444"/>
<path d="M134.892 35.1873L134.871 35.2136L134.854 35.2424C134.445 35.9329 134.171 36.7656 134.171 37.7338V43.3224H132.596V35.8699V35.8521C132.596 34.7171 132.596 33.7309 132.522 32.7664H133.708L133.804 34.5304L133.83 35.0031H134.303H134.426H134.788L134.901 34.6593C135.105 34.0391 135.515 33.4978 135.965 33.0346C136.523 32.7022 137.026 32.5179 137.492 32.5179H137.493H137.495H137.496H137.497H137.499H137.5H137.502H137.503H137.505H137.506H137.507H137.509H137.51H137.512H137.513H137.515H137.516H137.518H137.519H137.52H137.522H137.523H137.525H137.526H137.528H137.529H137.53H137.532H137.533H137.535H137.536H137.538H137.539H137.541H137.542H137.543H137.545H137.546H137.548H137.549H137.551H137.552H137.553H137.555H137.556H137.558H137.559H137.561H137.562H137.563H137.565H137.566H137.568H137.569H137.571H137.572H137.573H137.575H137.576H137.578H137.579H137.581H137.582H137.583H137.585H137.586H137.588H137.589H137.591H137.592H137.593H137.595H137.596H137.598H137.599H137.6H137.602H137.603H137.605H137.605V34.016C137.532 34.0081 137.453 34.0031 137.369 34.0031C136.358 34.0031 135.477 34.4459 134.892 35.1873Z" fill="#444444" stroke="#444444"/>
<path d="M141.783 38.2279H141.283V38.7279C141.283 39.9671 141.697 40.9872 142.564 41.7194L142.564 41.7194L142.572 41.7257C143.264 42.2865 144.231 42.7071 145.339 42.7071C146.251 42.7071 147.201 42.6254 148.034 42.3754L148.198 43.1484C147.262 43.5102 146.217 43.6953 144.971 43.6953C143.346 43.6953 142.034 43.2262 141.178 42.2502L141.168 42.2392L141.158 42.2287C140.297 41.3562 139.831 40.0086 139.831 38.3551C139.831 36.7109 140.293 35.332 141.074 34.3132C141.951 33.2037 143.149 32.6422 144.726 32.6422C146.191 32.6422 147.351 33.2072 147.974 34.2608L147.997 34.2992L148.026 34.3329C148.771 35.1958 149.008 36.2957 149.008 37.6096C149.008 37.8645 149.008 38.0593 148.995 38.221C148.994 38.2233 148.994 38.2256 148.994 38.2279H141.783ZM147.118 34.7454L147.112 34.7352L147.106 34.7254C146.829 34.3048 146.5 33.9632 146.095 33.7287C145.688 33.4926 145.231 33.3818 144.726 33.3818C143.688 33.3818 142.939 33.8468 142.372 34.5661L142.367 34.5722L142.362 34.5784C141.927 35.1664 141.664 36.0009 141.535 36.7829L141.439 37.364H142.028H147.178V36.9883H147.678V36.864V36.364H147.647C147.587 35.8008 147.431 35.2738 147.118 34.7454Z" fill="#444444" stroke="#444444"/>
</svg>
