<svg width="180" height="57" viewBox="0 0 180 57" fill="none" xmlns="http://www.w3.org/2000/svg">
<path d="M174.375 56H5.625C3.09598 56 1 53.8952 1 51.3V5.7C1 3.10476 3.09598 1 5.625 1H174.375C176.904 1 179 3.10476 179 5.7V51.3C179 53.8952 176.904 56 174.375 56Z" fill="#F8F8F8" stroke="#444444" stroke-width="2"/>
<mask id="path-2-inside-1" fill="white">
<path fill-rule="evenodd" clip-rule="evenodd" d="M95.3656 46.9342C94.7469 46.4328 94.252 45.5551 94.0046 45.0537L95.9842 44.176C96.1079 44.4268 96.3553 44.8029 96.6028 45.179C97.0977 45.6805 97.84 46.182 98.5824 46.182C99.3247 46.182 100.191 45.8059 100.686 45.179C101.057 44.5522 101.304 43.9253 101.304 43.0477V42.2955C99.8196 44.176 96.7265 43.9253 94.9944 41.9193C93.1385 39.9134 93.1385 36.5283 94.9944 34.5224C96.8502 32.6418 99.5721 32.391 101.181 34.1462V33.2686H103.284V42.6716C103.284 45.0537 102.418 46.4328 101.304 47.3104C100.562 47.9372 99.4484 48.188 98.4586 48.188C97.3451 48.0626 96.2316 47.6865 95.3656 46.9342ZM147.205 47.4357L149.309 42.4208L145.597 33.7701H147.7L150.299 39.9134L152.897 33.7701H155L149.309 47.4357H147.205ZM137.184 42.6716C136.565 42.0447 136.318 41.1671 136.318 40.2895C136.318 39.5373 136.565 38.785 137.06 38.2835C137.926 37.4059 139.163 37.0298 140.524 37.0298C141.39 37.0298 142.133 37.1552 142.751 37.5313C142.751 36.0268 141.514 35.4 140.524 35.4C139.658 35.4 138.792 35.9015 138.421 36.7791L136.565 36.0268C136.936 35.1492 137.926 33.5194 140.401 33.5194C141.638 33.5194 142.875 33.8955 143.618 34.7731C144.36 35.6507 144.607 36.6537 144.607 38.0328V43.2984H142.504V42.4208C142.257 42.7969 141.762 43.0477 141.39 43.2984C140.896 43.5492 140.277 43.6746 139.658 43.6746C138.916 43.5492 137.803 43.2984 137.184 42.6716ZM71.2396 38.1582C71.2396 35.6507 73.0954 32.8925 76.4359 32.8925C79.6527 32.8925 81.6323 35.6507 81.6323 38.1582C81.6323 40.6656 79.7765 43.4238 76.4359 43.4238C73.0954 43.4238 71.2396 40.6656 71.2396 38.1582ZM82.3746 38.1582C82.3746 35.6507 84.2305 32.8925 87.571 32.8925C90.7878 32.8925 92.7674 35.6507 92.7674 38.1582C92.7674 40.6656 90.9115 43.4238 87.571 43.4238C84.3542 43.4238 82.3746 40.6656 82.3746 38.1582ZM57.2589 40.9164C54.1658 37.782 54.2895 32.6418 57.3826 29.3821C58.991 27.7522 60.9706 27 63.0739 27C65.0534 27 67.033 27.7522 68.5177 29.2567L67.033 30.8865C64.806 28.6298 61.218 28.7552 59.1147 31.0119C56.8877 33.394 56.8877 37.0298 59.1147 39.4119C61.3417 41.794 65.0534 41.9193 67.2804 39.5373C68.0228 38.785 68.2702 37.782 68.3939 36.7791H63.1976V34.5224H70.4972C70.621 35.0238 70.621 35.6507 70.621 36.2776C70.621 38.1582 69.8786 40.0388 68.6414 41.2925C67.2804 42.6716 65.3009 43.4238 63.3213 43.4238C61.0943 43.2984 58.8673 42.5462 57.2589 40.9164ZM109.594 41.794C107.738 39.788 107.738 36.4029 109.594 34.2716C111.45 32.2656 114.543 32.2656 116.275 34.2716C116.893 34.8985 117.265 35.7761 117.636 36.6537L110.831 39.5373C111.202 40.4149 112.068 41.1671 113.305 41.1671C114.419 41.1671 115.161 40.791 115.904 39.6626L117.759 40.9164C117.512 41.1671 117.265 41.4179 117.141 41.6686C115.038 43.7999 111.45 43.7999 109.594 41.794ZM122.461 43.2984V29.3821H126.915C129.513 29.3821 131.616 31.2627 131.616 33.5194C131.616 35.7761 129.761 37.6567 127.41 37.6567H124.688V43.1731H122.461V43.2984ZM132.854 43.2984V29.3821H134.957V43.2984H132.854ZM104.892 43.0477V27.5015H107.119V43.0477H104.892ZM142.628 39.1611C142.133 38.785 141.391 38.6597 140.648 38.6597C139.163 38.6597 138.297 39.4119 138.297 40.2895C138.297 41.1671 139.163 41.6686 140.03 41.6686C141.267 41.6686 142.628 40.6656 142.628 39.1611ZM79.2816 38.1582C79.2816 36.6537 78.2918 35.0238 76.4359 35.0238C74.5801 35.0238 73.5903 36.6537 73.5903 38.1582C73.5903 39.6626 74.5801 41.2925 76.4359 41.2925C78.1681 41.2925 79.2816 39.6626 79.2816 38.1582ZM90.4166 38.1582C90.4166 36.6537 89.4268 35.0238 87.571 35.0238C85.7152 35.0238 84.7254 36.6537 84.7254 38.1582C84.7254 39.6626 85.7152 41.2925 87.571 41.2925C89.4268 41.2925 90.4166 39.6626 90.4166 38.1582ZM101.428 39.0358C101.428 38.9104 101.428 38.785 101.552 38.6597C101.552 38.5343 101.552 38.2835 101.552 38.1582C101.552 38.0328 101.552 37.782 101.552 37.6567V37.5313C101.552 37.4059 101.428 37.1552 101.428 37.0298C101.057 35.7761 99.9433 34.8985 98.8298 34.8985C97.3451 34.8985 96.1079 36.4029 96.1079 38.0328C96.1079 39.788 97.3451 41.1671 98.9535 41.1671C99.9433 41.2925 100.933 40.4149 101.428 39.0358ZM110.46 37.9074L115.038 35.9015C114.543 35.0238 113.8 34.7731 113.182 34.7731C111.326 34.8985 110.212 36.9044 110.46 37.9074ZM129.389 33.6447C129.389 32.391 128.4 31.5134 127.039 31.5134H124.564V35.9015H127.162C128.4 35.9015 129.389 34.8985 129.389 33.6447Z"/>
</mask>
<path fill-rule="evenodd" clip-rule="evenodd" d="M95.3656 46.9342C94.7469 46.4328 94.252 45.5551 94.0046 45.0537L95.9842 44.176C96.1079 44.4268 96.3553 44.8029 96.6028 45.179C97.0977 45.6805 97.84 46.182 98.5824 46.182C99.3247 46.182 100.191 45.8059 100.686 45.179C101.057 44.5522 101.304 43.9253 101.304 43.0477V42.2955C99.8196 44.176 96.7265 43.9253 94.9944 41.9193C93.1385 39.9134 93.1385 36.5283 94.9944 34.5224C96.8502 32.6418 99.5721 32.391 101.181 34.1462V33.2686H103.284V42.6716C103.284 45.0537 102.418 46.4328 101.304 47.3104C100.562 47.9372 99.4484 48.188 98.4586 48.188C97.3451 48.0626 96.2316 47.6865 95.3656 46.9342ZM147.205 47.4357L149.309 42.4208L145.597 33.7701H147.7L150.299 39.9134L152.897 33.7701H155L149.309 47.4357H147.205ZM137.184 42.6716C136.565 42.0447 136.318 41.1671 136.318 40.2895C136.318 39.5373 136.565 38.785 137.06 38.2835C137.926 37.4059 139.163 37.0298 140.524 37.0298C141.39 37.0298 142.133 37.1552 142.751 37.5313C142.751 36.0268 141.514 35.4 140.524 35.4C139.658 35.4 138.792 35.9015 138.421 36.7791L136.565 36.0268C136.936 35.1492 137.926 33.5194 140.401 33.5194C141.638 33.5194 142.875 33.8955 143.618 34.7731C144.36 35.6507 144.607 36.6537 144.607 38.0328V43.2984H142.504V42.4208C142.257 42.7969 141.762 43.0477 141.39 43.2984C140.896 43.5492 140.277 43.6746 139.658 43.6746C138.916 43.5492 137.803 43.2984 137.184 42.6716ZM71.2396 38.1582C71.2396 35.6507 73.0954 32.8925 76.4359 32.8925C79.6527 32.8925 81.6323 35.6507 81.6323 38.1582C81.6323 40.6656 79.7765 43.4238 76.4359 43.4238C73.0954 43.4238 71.2396 40.6656 71.2396 38.1582ZM82.3746 38.1582C82.3746 35.6507 84.2305 32.8925 87.571 32.8925C90.7878 32.8925 92.7674 35.6507 92.7674 38.1582C92.7674 40.6656 90.9115 43.4238 87.571 43.4238C84.3542 43.4238 82.3746 40.6656 82.3746 38.1582ZM57.2589 40.9164C54.1658 37.782 54.2895 32.6418 57.3826 29.3821C58.991 27.7522 60.9706 27 63.0739 27C65.0534 27 67.033 27.7522 68.5177 29.2567L67.033 30.8865C64.806 28.6298 61.218 28.7552 59.1147 31.0119C56.8877 33.394 56.8877 37.0298 59.1147 39.4119C61.3417 41.794 65.0534 41.9193 67.2804 39.5373C68.0228 38.785 68.2702 37.782 68.3939 36.7791H63.1976V34.5224H70.4972C70.621 35.0238 70.621 35.6507 70.621 36.2776C70.621 38.1582 69.8786 40.0388 68.6414 41.2925C67.2804 42.6716 65.3009 43.4238 63.3213 43.4238C61.0943 43.2984 58.8673 42.5462 57.2589 40.9164ZM109.594 41.794C107.738 39.788 107.738 36.4029 109.594 34.2716C111.45 32.2656 114.543 32.2656 116.275 34.2716C116.893 34.8985 117.265 35.7761 117.636 36.6537L110.831 39.5373C111.202 40.4149 112.068 41.1671 113.305 41.1671C114.419 41.1671 115.161 40.791 115.904 39.6626L117.759 40.9164C117.512 41.1671 117.265 41.4179 117.141 41.6686C115.038 43.7999 111.45 43.7999 109.594 41.794ZM122.461 43.2984V29.3821H126.915C129.513 29.3821 131.616 31.2627 131.616 33.5194C131.616 35.7761 129.761 37.6567 127.41 37.6567H124.688V43.1731H122.461V43.2984ZM132.854 43.2984V29.3821H134.957V43.2984H132.854ZM104.892 43.0477V27.5015H107.119V43.0477H104.892ZM142.628 39.1611C142.133 38.785 141.391 38.6597 140.648 38.6597C139.163 38.6597 138.297 39.4119 138.297 40.2895C138.297 41.1671 139.163 41.6686 140.03 41.6686C141.267 41.6686 142.628 40.6656 142.628 39.1611ZM79.2816 38.1582C79.2816 36.6537 78.2918 35.0238 76.4359 35.0238C74.5801 35.0238 73.5903 36.6537 73.5903 38.1582C73.5903 39.6626 74.5801 41.2925 76.4359 41.2925C78.1681 41.2925 79.2816 39.6626 79.2816 38.1582ZM90.4166 38.1582C90.4166 36.6537 89.4268 35.0238 87.571 35.0238C85.7152 35.0238 84.7254 36.6537 84.7254 38.1582C84.7254 39.6626 85.7152 41.2925 87.571 41.2925C89.4268 41.2925 90.4166 39.6626 90.4166 38.1582ZM101.428 39.0358C101.428 38.9104 101.428 38.785 101.552 38.6597C101.552 38.5343 101.552 38.2835 101.552 38.1582C101.552 38.0328 101.552 37.782 101.552 37.6567V37.5313C101.552 37.4059 101.428 37.1552 101.428 37.0298C101.057 35.7761 99.9433 34.8985 98.8298 34.8985C97.3451 34.8985 96.1079 36.4029 96.1079 38.0328C96.1079 39.788 97.3451 41.1671 98.9535 41.1671C99.9433 41.2925 100.933 40.4149 101.428 39.0358ZM110.46 37.9074L115.038 35.9015C114.543 35.0238 113.8 34.7731 113.182 34.7731C111.326 34.8985 110.212 36.9044 110.46 37.9074ZM129.389 33.6447C129.389 32.391 128.4 31.5134 127.039 31.5134H124.564V35.9015H127.162C128.4 35.9015 129.389 34.8985 129.389 33.6447Z" fill="#444444" stroke="#444444" stroke-width="2" mask="url(#path-2-inside-1)"/>
<path d="M62.5976 15.1943C62.5976 16.2111 62.3444 17.1007 61.7113 17.7361C60.9515 18.4988 60.065 18.88 58.9254 18.88C57.7858 18.88 56.8994 18.4988 56.1396 17.7361C55.3798 16.9736 55 16.0839 55 14.94C55 13.7961 55.3798 12.9064 56.1396 12.1439C56.8994 11.3813 57.7858 11 58.9254 11C59.4319 11 59.9384 11.1271 60.445 11.3813C60.9515 11.6355 61.3313 11.8897 61.5846 12.2709L60.9515 12.9064C60.445 12.2709 59.8117 12.0168 58.9254 12.0168C58.1656 12.0168 57.4059 12.2709 56.8994 12.9064C56.2662 13.4148 56.0129 14.1775 56.0129 15.0671C56.0129 15.9568 56.2662 16.7193 56.8994 17.2277C57.5325 17.7361 58.1656 18.1175 58.9254 18.1175C59.8117 18.1175 60.445 17.8633 61.0781 17.2277C61.458 16.8465 61.7113 16.3381 61.7113 15.7027H58.9254V14.6859H62.5976V15.1943ZM68.4224 12.0168H65.0036V14.4316H68.1692V15.3213H65.0036V17.7361H68.4224V18.7529H63.9905V11.1271H68.4224V12.0168ZM72.6012 18.7529H71.5881V12.0168H69.4355V11.1271H74.7539V12.0168H72.6012V18.7529ZM78.426 18.7529V11.1271H79.439V18.7529H78.426ZM83.7444 18.7529H82.7313V12.0168H80.5786V11.1271H85.7703V12.0168H83.6178V18.7529H83.7444ZM95.7739 17.7361C95.0142 18.4988 94.1278 18.88 92.9881 18.88C91.8485 18.88 90.9622 18.4988 90.2024 17.7361C89.4426 16.9736 89.0628 16.0839 89.0628 14.94C89.0628 13.7961 89.4426 12.9064 90.2024 12.1439C90.9622 11.3813 91.8485 11 92.9881 11C94.1278 11 95.0142 11.3813 95.7739 12.1439C96.5337 12.9064 96.9136 13.7961 96.9136 14.94C96.9136 16.0839 96.5337 16.9736 95.7739 17.7361ZM90.9622 17.1007C91.4687 17.6091 92.2283 17.9904 92.9881 17.9904C93.7479 17.9904 94.5077 17.7361 95.0142 17.1007C95.5208 16.5923 95.9006 15.8297 95.9006 14.94C95.9006 14.0504 95.6473 13.2877 95.0142 12.7793C94.5077 12.2709 93.7479 11.8897 92.9881 11.8897C92.2283 11.8897 91.4687 12.1439 90.9622 12.7793C90.4556 13.2877 90.0757 14.0504 90.0757 14.94C90.0757 15.8297 90.3289 16.5923 90.9622 17.1007ZM98.3065 18.7529V11.1271H99.4461L103.118 17.1007V11.1271H104.131V18.7529H103.118L99.1929 12.5252V18.7529H98.3065Z" fill="#444444"/>
<g clip-path="url(#clip0)">
<path d="M20.1612 13.9151L20.1744 13.9231L20.1881 13.9303L36.7735 22.6479L32.8032 26.3775L19.1355 13.5381C19.4955 13.5968 19.8446 13.7229 20.1612 13.9151Z" fill="#444444" stroke="#444444"/>
<path d="M15.9175 16.0464C15.9175 15.6775 16.0047 15.3197 16.1663 14.993L30.5443 28.4997L16.1664 42.0063C16.0047 41.6797 15.9175 41.3219 15.9175 40.9529V16.0464Z" fill="#444444" stroke="#444444"/>
<path d="M35.0623 28.4996L39.6705 24.1707L43.6906 26.2837C44.576 26.7494 45.0829 27.5786 45.0829 28.4996C45.0829 29.4207 44.5759 30.25 43.6911 30.7157L39.6708 32.8288L35.0623 28.4996Z" fill="#444444" stroke="#444444"/>
<path d="M20.1882 43.0688L20.1746 43.076L20.1614 43.084C19.8448 43.2761 19.4955 43.4026 19.1351 43.4615L32.8033 30.6216L36.7737 34.3513L20.1882 43.0688Z" fill="#444444" stroke="#444444"/>
</g>
<defs>
<clipPath id="clip0">
<rect width="33" height="31" fill="white" transform="translate(14 13)"/>
</clipPath>
</defs>
</svg>
