<svg width="18" height="12" viewBox="0 0 18 12" fill="none" xmlns="http://www.w3.org/2000/svg">
<path d="M18 2.59689H14.8275C11.4637 -0.328113 6.53625 -0.328113 3.1725 2.59689H0C0 2.59689 0.72 3.47439 1.0125 4.29564C0.3825 5.06064 0 6.02814 0 7.09689C0 9.58314 2.01375 11.5969 4.5 11.5969C5.97375 11.5969 7.27875 10.8769 8.1 9.77439L9.045 11.5969L9.91125 9.78564C10.7325 10.8769 12.0262 11.5969 13.5 11.5969C15.9862 11.5969 18 9.58314 18 7.09689C18 6.02814 17.6175 5.06064 16.9875 4.29564C17.28 3.47439 18 2.59689 18 2.59689ZM4.5 10.4719C2.64375 10.4719 1.125 8.95314 1.125 7.09689C1.125 5.24064 2.64375 3.72189 4.5 3.72189C6.35625 3.72189 7.875 5.24064 7.875 7.09689C7.875 8.95314 6.35625 10.4719 4.5 10.4719ZM13.5 10.4719C11.6438 10.4719 10.125 8.95314 10.125 7.09689C10.125 5.24064 11.6438 3.72189 13.5 3.72189C15.3562 3.72189 16.875 5.24064 16.875 7.09689C16.875 8.95314 15.3562 10.4719 13.5 10.4719Z" fill="#444444"/>
</svg>
