<svg width="18" height="18" viewBox="0 0 18 18" fill="none" xmlns="http://www.w3.org/2000/svg">
<g clip-path="url(#clip0)">
<path d="M17.9954 18V17.9993H17.9999V11.3977C17.9999 8.16824 17.3047 5.68048 13.5292 5.68048C11.7142 5.68048 10.4962 6.67648 9.99895 7.62074H9.94645V5.98198H6.3667V17.9993H10.0942V12.0487C10.0942 10.482 10.3912 8.96699 12.3314 8.96699C14.2432 8.96699 14.2717 10.755 14.2717 12.1492V18H17.9954Z" fill="#444444"/>
<path d="M0.297363 5.98273H4.02936V18H0.297363V5.98273Z" fill="#444444"/>
<path d="M2.1615 0C0.96825 0 0 0.96825 0 2.1615C0 3.35475 0.96825 4.34325 2.1615 4.34325C3.35475 4.34325 4.323 3.35475 4.323 2.1615C4.32225 0.96825 3.354 0 2.1615 0V0Z" fill="#444444"/>
</g>
<defs>
<clipPath id="clip0">
<rect width="18" height="18" fill="white"/>
</clipPath>
</defs>
</svg>
