<svg width="18" height="18" viewBox="0 0 18 18" fill="none" xmlns="http://www.w3.org/2000/svg">
<path d="M9.24495 0C4.31161 0 1.68799 3.16139 1.68799 6.60855C1.68799 8.20724 2.58128 10.2008 4.01122 10.8331C4.22835 10.931 4.34648 10.8894 4.39486 10.688C4.43761 10.535 4.62549 9.79807 4.71662 9.45043C4.74475 9.33905 4.73012 9.24229 4.64012 9.13766C4.16535 8.58864 3.78846 7.58847 3.78846 6.65017C3.78846 4.24594 5.69992 1.91146 8.95244 1.91146C11.7651 1.91146 13.7328 3.73854 13.7328 6.35204C13.7328 9.30529 12.1701 11.3484 10.1394 11.3484C9.01544 11.3484 8.1784 10.4663 8.44392 9.37505C8.76456 8.07561 9.39346 6.6783 9.39346 5.74113C9.39346 4.90072 8.91869 4.20544 7.94889 4.20544C6.80472 4.20544 5.87655 5.33837 5.87655 6.85943C5.87655 7.82585 6.21857 8.47838 6.21857 8.47838C6.21857 8.47838 5.08677 13.0506 4.87638 13.9045C4.52087 15.3502 4.92476 17.6914 4.95964 17.8928C4.98101 18.0042 5.10589 18.0391 5.17564 17.9479C5.28702 17.8017 6.65509 15.8497 7.03873 14.4389C7.17823 13.9248 7.75089 11.84 7.75089 11.84C8.12778 12.5207 9.2157 13.0911 10.3745 13.0911C13.8217 13.0911 16.3125 10.0613 16.3125 6.30141C16.3001 2.69675 13.2153 0 9.24495 0Z" fill="#444444"/>
</svg>
