<svg width="180" height="57" fill="none" xmlns="http://www.w3.org/2000/svg"><path d="M174.375 56H5.625C3.096 56 1 53.895 1 51.3V5.7C1 3.105 3.096 1 5.625 1h168.75C176.904 1 179 3.105 179 5.7v45.6c0 2.595-2.096 4.7-4.625 4.7z" fill="#F8F8F8" stroke="#444" stroke-width="2"/><path d="M39.95 40.042h-.001l-.007.011c-.705 1.072-1.414 2.093-2.226 2.848-.803.747-1.671 1.202-2.7 1.202-1.056 0-1.737-.3-2.523-.646l-.053-.024c-.826-.364-1.747-.755-3.19-.755-1.43 0-2.38.348-3.23.697l-.204.083c-.755.312-1.419.586-2.363.646-.922.059-1.775-.402-2.63-1.216-.814-.778-1.56-1.809-2.305-2.84l-.108-.148c-1.435-2.15-2.707-5.18-3.24-8.33-.533-3.158-.315-6.377 1.155-8.949 1.47-2.573 3.987-4.165 6.737-4.165 1.02 0 2.03.356 3.015.748l.33.132c.37.15.738.298 1.082.415.446.152.904.272 1.34.272.412 0 .891-.146 1.36-.314.242-.088.5-.188.764-.291l.023-.01c.259-.1.526-.205.802-.306 1.147-.423 2.389-.778 3.602-.65 1.052.134 3.722.511 5.68 2.96a9.78 9.78 0 00-1.629 1.53c-.984 1.167-1.962 2.916-1.962 5.274 0 2.803 1.24 4.673 2.496 5.85.624.586 1.25 1 1.728 1.276.182.105.343.19.473.257a14.543 14.543 0 01-.44 1.188c-.377.902-.958 2.08-1.777 3.255zm2.304-4.76l.001-.006-.001.007z" fill="#444" stroke="#444"/><path d="M56.981 18.746c-.766 0-1.43-.037-1.981-.098v-8.111a15.372 15.372 0 012.333-.171c3.16 0 4.616 1.516 4.616 3.988 0 2.852-1.72 4.392-4.968 4.392zm.463-7.34c-.426 0-.79.025-1.09.085v6.166c.162.025.475.036.915.036 2.07 0 3.249-1.15 3.249-3.302 0-1.92-1.066-2.985-3.074-2.985zm9.04 7.402c-1.78 0-2.935-1.297-2.935-3.058 0-1.836 1.179-3.144 3.036-3.144 1.756 0 2.936 1.235 2.936 3.046 0 1.859-1.216 3.156-3.037 3.156zm.052-5.237c-.978 0-1.605.893-1.605 2.14 0 1.225.64 2.117 1.592 2.117.953 0 1.593-.954 1.593-2.141 0-1.21-.627-2.116-1.58-2.116zm13.142-.843l-1.907 5.945H76.53l-.79-2.582a19.175 19.175 0 01-.49-1.92h-.025c-.1.648-.288 1.298-.489 1.92l-.84 2.582H72.64l-1.794-5.945h1.392l.69 2.826c.163.673.3 1.309.414 1.909h.026c.1-.5.262-1.126.501-1.896l.866-2.838h1.104l.829 2.777c.2.674.363 1.334.49 1.958h.036c.087-.611.226-1.26.413-1.958l.74-2.777 1.33-.001zm7.019 5.945h-1.355v-3.414c0-1.051-.414-1.578-1.23-1.578-.802 0-1.354.673-1.354 1.456v3.536h-1.355v-4.246c0-.525-.012-1.089-.05-1.7h1.192l.063.917h.038c.364-.635 1.103-1.038 1.932-1.038 1.28 0 2.12.954 2.12 2.507l-.001 3.56zm3.735 0h-1.356V10h1.356v8.673zm4.94.135c-1.78 0-2.936-1.297-2.936-3.058 0-1.836 1.178-3.144 3.035-3.144 1.756 0 2.935 1.235 2.935 3.046.001 1.859-1.216 3.156-3.035 3.156zm.05-5.237c-.979 0-1.606.893-1.606 2.14 0 1.225.641 2.117 1.591 2.117.954 0 1.593-.954 1.593-2.141.001-1.21-.624-2.116-1.579-2.116zm8.325 5.102l-.098-.685h-.036c-.414.551-1.018.82-1.783.82-1.092 0-1.868-.747-1.868-1.75 0-1.467 1.304-2.226 3.563-2.226v-.11c0-.783-.426-1.175-1.266-1.175a2.91 2.91 0 00-1.592.441l-.275-.868c.563-.343 1.266-.514 2.092-.514 1.593 0 2.397.819 2.397 2.46v2.189c0 .6.027 1.065.087 1.42l-1.221-.002zm-.186-2.961c-1.505 0-2.26.355-2.26 1.199 0 .624.389.929.93.929.689 0 1.33-.513 1.33-1.21v-.918zm7.898 2.96l-.064-.953h-.037c-.389.72-1.043 1.089-1.957 1.089-1.47 0-2.558-1.26-2.558-3.034 0-1.86 1.128-3.17 2.669-3.17.815 0 1.393.269 1.719.808h.027V10h1.356v7.07c0 .575.014 1.114.05 1.603h-1.205zm-.201-3.497c0-.832-.565-1.542-1.427-1.542-1.004 0-1.618.869-1.618 2.091 0 1.2.637 2.02 1.591 2.02.852 0 1.454-.723 1.454-1.578v-.991zm9.953 3.633c-1.78 0-2.934-1.297-2.934-3.058 0-1.836 1.179-3.144 3.035-3.144 1.756 0 2.935 1.235 2.935 3.046.002 1.859-1.215 3.156-3.036 3.156zm.051-5.237c-.978 0-1.605.893-1.605 2.14 0 1.225.64 2.117 1.592 2.117.954 0 1.592-.954 1.592-2.141.003-1.21-.624-2.116-1.579-2.116zm10.27 5.102h-1.355v-3.414c0-1.051-.414-1.578-1.23-1.578-.803 0-1.353.673-1.353 1.456v3.536h-1.356v-4.246c0-.525-.013-1.089-.05-1.7h1.191l.064.917h.038c.362-.635 1.103-1.04 1.93-1.04 1.28 0 2.121.955 2.121 2.508v3.56zm9.115-4.954h-1.491v2.886c0 .735.261 1.102.788 1.102.239 0 .44-.025.602-.062l.037 1.004c-.262.098-.614.148-1.051.148-1.068 0-1.706-.575-1.706-2.08v-2.998h-.889v-.991h.889v-1.09l1.33-.391v1.48h1.491v.992zm7.17 4.954h-1.353v-3.389c0-1.064-.412-1.602-1.23-1.602-.701 0-1.355.465-1.355 1.407v3.584h-1.353V10h1.353v3.571h.027c.427-.648 1.045-.967 1.833-.967 1.29 0 2.078.979 2.078 2.533v3.536zm7.347-2.655h-4.065c.027 1.126.79 1.761 1.922 1.761.6 0 1.153-.098 1.642-.281l.21.918c-.576.244-1.255.367-2.044.367-1.907 0-3.035-1.175-3.035-2.997 0-1.823 1.155-3.193 2.883-3.193 1.557 0 2.534 1.126 2.534 2.826a2.52 2.52 0 01-.047.6zm-1.242-.942c0-.917-.474-1.565-1.34-1.565-.778 0-1.394.66-1.481 1.565h2.821z" fill="#444"/><path d="M30.75 12.443l.017-.019.014-.02c.503-.7 1.275-1.295 2.14-1.733a7.618 7.618 0 012.03-.696c-.026 1.777-.756 3.45-1.733 4.818-1.104 1.234-2.719 2.185-4.215 2.244-.076-1.689.766-3.476 1.748-4.594zm33.645 26.633l-.11-.351h-5.894l-.104.362-1.245 4.36H55.53l4.828-15.03h.67l-.298 1.516c-.12.61-.362 1.71-.723 2.932l-1.348 4.22-.208.652h5.661l-.208-.652-1.35-4.225h0v-.004a10.14 10.14 0 01-.153-.553l-.13-.493a36.34 36.34 0 00-.576-1.936l-.479-1.457h1.596l4.6 15.03h-1.655l-1.362-4.37zm7.975 3.628v5.589h-1.576V36.359c0-1.074 0-2.166-.081-3.344h1.197l.092 1.397.102 1.54.82-1.307c.772-1.229 1.843-1.878 3.379-1.878 1.202 0 2.155.431 2.914 1.42l.028.036.034.03c.967.872 1.428 2.083 1.428 3.854 0 1.89-.46 3.25-1.459 4.38-.888.896-1.863 1.333-3.19 1.333-1.353 0-2.252-.447-2.75-1.356l-.939.24zm6.762-4.597c0-1.162-.249-2.28-.83-3.027-.593-.89-1.49-1.325-2.613-1.325-.744 0-1.46.298-2.019.723-.588.447-1.013 1.166-1.163 1.886a2.697 2.697 0 00-.138.873v1.988c0 .99.288 1.719.843 2.422.61.773 1.512 1.06 2.355 1.06 1.12 0 2.017-.434 2.61-1.321.703-.868.955-1.988.955-3.28zm6.359 4.597v5.589h-1.575V36.359c0-1.074 0-2.166-.081-3.344h1.198l.091 1.397.102 1.54.82-1.307c.772-1.229 1.843-1.878 3.379-1.878 1.202 0 2.155.431 2.914 1.42l.028.036.034.03c.967.872 1.429 2.083 1.429 3.854 0 1.89-.461 3.25-1.46 4.38-.888.896-1.863 1.333-3.19 1.333-1.353 0-2.252-.447-2.75-1.356l-.939.24zm6.763-4.597c0-1.162-.249-2.28-.83-3.027-.593-.89-1.49-1.325-2.613-1.325-.744 0-1.46.298-2.019.723-.588.447-1.013 1.166-1.163 1.886a2.697 2.697 0 00-.138.873v1.988c0 .99.288 1.719.844 2.422.61.773 1.51 1.06 2.354 1.06 1.12 0 2.017-.434 2.61-1.321.704-.868.955-1.988.955-3.28zm7.692 4.858l.335-1.153a7.798 7.798 0 003.368.77c1.062 0 1.912-.269 2.51-.723l.028-.021.025-.025c.57-.578.88-1.198.88-2.091 0-.736-.286-1.489-.758-1.967-.57-.578-1.393-.982-2.385-1.359h0l-.011-.004c-2.712-.956-3.836-2.433-3.836-4.126 0-1.215.423-2.075 1.303-2.856.861-.763 1.953-1.117 3.593-1.117 1.218 0 2.147.177 2.956.518l-.326 1.121c-.805-.354-1.705-.527-2.753-.527-.949 0-1.796.274-2.387.724l-.028.021-.025.026a2.57 2.57 0 00-.758 1.842c0 .783.322 1.4.88 1.966.246.25.618.467 1.019.67a31.565 31.565 0 001.462.678l.016.007.016.006a7.756 7.756 0 012.839 1.826c.326.565.635 1.33.635 2.302 0 1.235-.438 2.227-1.205 3.004-.841.853-2.147 1.218-3.935 1.218-1.457 0-2.602-.28-3.458-.73zm12.664-12.316l1.452-.442v2.684h2.821v.988h-2.821v6.091c0 .73.129 1.376.456 1.852.348.508.879.76 1.516.76h.014c.217 0 .432 0 .626-.013l.064 1.039c-.328.08-.763.087-1.44.087-.922 0-1.588-.236-1.937-.68l-.018-.021-.019-.02c-.467-.473-.714-1.29-.714-2.755v-6.34h-1.717v-.988h1.717v-2.242zm8.194 3.584l.01-.01.01-.011c.873-.995 2.199-1.57 3.793-1.57 1.576 0 2.781.562 3.66 1.557.781 1.024 1.236 2.278 1.236 3.908 0 1.639-.459 3-1.338 4.008-1.012 1.02-2.231 1.58-3.803 1.58-1.582 0-2.791-.566-3.671-1.57-.89-1.014-1.347-2.26-1.347-3.894 0-1.644.461-2.996 1.45-3.998zm6.184 7.02l.005-.007.004-.007c.556-.845.818-1.941.818-3.008 0-1.191-.262-2.157-.809-2.995a3.122 3.122 0 00-2.757-1.606 3.12 3.12 0 00-2.756 1.607c-.55.843-.809 1.933-.809 2.994 0 1.19.262 2.156.809 2.994a3.12 3.12 0 002.756 1.606c1.192 0 2.063-.62 2.739-1.578zm7.904-6.066l-.021.027-.017.028a4.832 4.832 0 00-.683 2.492v5.588h-1.575v-7.47c0-1.135 0-2.121-.074-3.086h1.186l.096 1.764.026.473h.958l.113-.344c.204-.62.614-1.161 1.064-1.624.558-.333 1.061-.517 1.527-.517h.113v1.498a3.106 3.106 0 00-2.713 1.171zm6.891 3.041h-.5v.5c0 1.24.414 2.26 1.281 2.991h0l.008.007c.692.56 1.659.981 2.767.981.912 0 1.862-.082 2.695-.332l.164.773c-.936.362-1.981.547-3.227.547-1.625 0-2.937-.469-3.793-1.445l-.01-.01-.01-.011c-.861-.873-1.327-2.22-1.327-3.874 0-1.644.462-3.023 1.243-4.042.877-1.11 2.075-1.67 3.652-1.67 1.465 0 2.625.564 3.248 1.618l.023.038.029.034c.745.863.982 1.963.982 3.277 0 .255 0 .45-.013.611l-.001.007h-7.211zm5.335-3.483l-.006-.01-.006-.01c-.277-.42-.606-.762-1.011-.996a2.675 2.675 0 00-1.369-.347c-1.038 0-1.787.465-2.354 1.184l-.005.006-.005.006c-.435.588-.698 1.423-.827 2.205l-.096.581h5.739v-.376h.5v-.624h-.031a3.892 3.892 0 00-.529-1.619z" fill="#444" stroke="#444"/></svg>