<svg width="180" height="57" fill="none" xmlns="http://www.w3.org/2000/svg"><path d="M174.375 56H5.625C3.096 56 1 53.895 1 51.3V5.7C1 3.105 3.096 1 5.625 1h168.75C176.904 1 179 3.105 179 5.7v45.6c0 2.595-2.096 4.7-4.625 4.7z" fill="#F8F8F8" stroke="#444" stroke-width="2"/><mask id="a" fill="#fff"><path fill-rule="evenodd" clip-rule="evenodd" d="M95.366 46.934c-.62-.501-1.114-1.379-1.361-1.88l1.98-.878c.123.25.37.627.618 1.003.495.502 1.237 1.003 1.98 1.003.742 0 1.608-.376 2.103-1.003.371-.627.618-1.254.618-2.131v-.753c-1.484 1.881-4.578 1.63-6.31-.376-1.856-2.006-1.856-5.39 0-7.397 1.856-1.88 4.578-2.131 6.187-.376v-.877h2.103v9.403c0 2.382-.866 3.76-1.98 4.638-.742.627-1.856.878-2.845.878-1.114-.125-2.227-.502-3.093-1.254zm51.839.502l2.104-5.015-3.712-8.65h2.103l2.599 6.142 2.598-6.143H155l-5.691 13.666h-2.104zm-10.021-4.764c-.619-.627-.866-1.505-.866-2.383 0-.752.247-1.504.742-2.006.866-.877 2.103-1.253 3.464-1.253.866 0 1.609.125 2.227.501 0-1.504-1.237-2.131-2.227-2.131-.866 0-1.732.502-2.103 1.38l-1.856-.753c.371-.878 1.361-2.508 3.836-2.508 1.237 0 2.474.377 3.217 1.254.742.878.989 1.88.989 3.26v5.265h-2.103v-.877c-.247.376-.742.627-1.114.877-.494.251-1.113.377-1.732.377-.742-.126-1.855-.377-2.474-1.003zM71.24 38.158c0-2.507 1.855-5.266 5.196-5.266 3.217 0 5.196 2.759 5.196 5.266 0 2.508-1.856 5.266-5.196 5.266s-5.196-2.758-5.196-5.266zm11.135 0c0-2.507 1.856-5.266 5.196-5.266 3.217 0 5.196 2.759 5.196 5.266 0 2.508-1.855 5.266-5.196 5.266-3.217 0-5.196-2.758-5.196-5.266zm-25.116 2.758c-3.093-3.134-2.97-8.274.124-11.534C58.99 27.752 60.97 27 63.073 27c1.98 0 3.96.752 5.445 2.257l-1.485 1.63c-2.227-2.257-5.815-2.132-7.918.125a6.116 6.116 0 000 8.4c2.227 2.382 5.938 2.507 8.165.125.743-.752.99-1.755 1.114-2.758h-5.196v-2.257h7.3c.123.502.123 1.129.123 1.756 0 1.88-.742 3.76-1.98 5.014-1.36 1.38-3.34 2.132-5.32 2.132-2.227-.126-4.454-.878-6.062-2.508zm52.335.878c-1.856-2.006-1.856-5.391 0-7.522 1.856-2.006 4.949-2.006 6.681 0 .618.627.99 1.504 1.361 2.382l-6.805 2.883a2.639 2.639 0 002.474 1.63c1.114 0 1.856-.376 2.599-1.504l1.855 1.253c-.247.251-.494.502-.618.753-2.103 2.13-5.691 2.13-7.547.125zm12.867 1.504V29.382h4.454c2.598 0 4.701 1.88 4.701 4.137 0 2.257-1.855 4.138-4.206 4.138h-2.722v5.516h-2.227v.125zm10.393 0V29.382h2.103v13.916h-2.103zm-27.962-.25V27.5h2.227v15.547h-2.227zm37.736-3.887c-.495-.376-1.237-.501-1.98-.501-1.485 0-2.351.752-2.351 1.63 0 .877.866 1.379 1.733 1.379 1.237 0 2.598-1.003 2.598-2.508zm-63.346-1.003c0-1.504-.99-3.134-2.846-3.134s-2.846 1.63-2.846 3.134c0 1.505.99 3.134 2.846 3.134 1.732 0 2.846-1.63 2.846-3.134zm11.135 0c0-1.504-.99-3.134-2.846-3.134s-2.846 1.63-2.846 3.134c0 1.505.99 3.134 2.846 3.134s2.846-1.63 2.846-3.134zm11.011.878c0-.126 0-.251.124-.376v-1.129c0-.125-.124-.376-.124-.501-.371-1.254-1.485-2.132-2.598-2.132-1.485 0-2.722 1.505-2.722 3.135 0 1.755 1.237 3.134 2.846 3.134.99.125 1.979-.752 2.474-2.131zm9.032-1.129l4.578-2.005c-.495-.878-1.238-1.129-1.856-1.129-1.856.125-2.97 2.131-2.722 3.134zm18.929-4.262c0-1.254-.989-2.132-2.35-2.132h-2.475v4.388h2.598c1.238 0 2.227-1.003 2.227-2.256z"/></mask><path fill-rule="evenodd" clip-rule="evenodd" d="M95.366 46.934c-.62-.501-1.114-1.379-1.361-1.88l1.98-.878c.123.25.37.627.618 1.003.495.502 1.237 1.003 1.98 1.003.742 0 1.608-.376 2.103-1.003.371-.627.618-1.254.618-2.131v-.753c-1.484 1.881-4.578 1.63-6.31-.376-1.856-2.006-1.856-5.39 0-7.397 1.856-1.88 4.578-2.131 6.187-.376v-.877h2.103v9.403c0 2.382-.866 3.76-1.98 4.638-.742.627-1.856.878-2.845.878-1.114-.125-2.227-.502-3.093-1.254zm51.839.502l2.104-5.015-3.712-8.65h2.103l2.599 6.142 2.598-6.143H155l-5.691 13.666h-2.104zm-10.021-4.764c-.619-.627-.866-1.505-.866-2.383 0-.752.247-1.504.742-2.006.866-.877 2.103-1.253 3.464-1.253.866 0 1.609.125 2.227.501 0-1.504-1.237-2.131-2.227-2.131-.866 0-1.732.502-2.103 1.38l-1.856-.753c.371-.878 1.361-2.508 3.836-2.508 1.237 0 2.474.377 3.217 1.254.742.878.989 1.88.989 3.26v5.265h-2.103v-.877c-.247.376-.742.627-1.114.877-.494.251-1.113.377-1.732.377-.742-.126-1.855-.377-2.474-1.003zM71.24 38.158c0-2.507 1.855-5.266 5.196-5.266 3.217 0 5.196 2.759 5.196 5.266 0 2.508-1.856 5.266-5.196 5.266s-5.196-2.758-5.196-5.266zm11.135 0c0-2.507 1.856-5.266 5.196-5.266 3.217 0 5.196 2.759 5.196 5.266 0 2.508-1.855 5.266-5.196 5.266-3.217 0-5.196-2.758-5.196-5.266zm-25.116 2.758c-3.093-3.134-2.97-8.274.124-11.534C58.99 27.752 60.97 27 63.073 27c1.98 0 3.96.752 5.445 2.257l-1.485 1.63c-2.227-2.257-5.815-2.132-7.918.125a6.116 6.116 0 000 8.4c2.227 2.382 5.938 2.507 8.165.125.743-.752.99-1.755 1.114-2.758h-5.196v-2.257h7.3c.123.502.123 1.129.123 1.756 0 1.88-.742 3.76-1.98 5.014-1.36 1.38-3.34 2.132-5.32 2.132-2.227-.126-4.454-.878-6.062-2.508zm52.335.878c-1.856-2.006-1.856-5.391 0-7.522 1.856-2.006 4.949-2.006 6.681 0 .618.627.99 1.504 1.361 2.382l-6.805 2.883a2.639 2.639 0 002.474 1.63c1.114 0 1.856-.376 2.599-1.504l1.855 1.253c-.247.251-.494.502-.618.753-2.103 2.13-5.691 2.13-7.547.125zm12.867 1.504V29.382h4.454c2.598 0 4.701 1.88 4.701 4.137 0 2.257-1.855 4.138-4.206 4.138h-2.722v5.516h-2.227v.125zm10.393 0V29.382h2.103v13.916h-2.103zm-27.962-.25V27.5h2.227v15.547h-2.227zm37.736-3.887c-.495-.376-1.237-.501-1.98-.501-1.485 0-2.351.752-2.351 1.63 0 .877.866 1.379 1.733 1.379 1.237 0 2.598-1.003 2.598-2.508zm-63.346-1.003c0-1.504-.99-3.134-2.846-3.134s-2.846 1.63-2.846 3.134c0 1.505.99 3.134 2.846 3.134 1.732 0 2.846-1.63 2.846-3.134zm11.135 0c0-1.504-.99-3.134-2.846-3.134s-2.846 1.63-2.846 3.134c0 1.505.99 3.134 2.846 3.134s2.846-1.63 2.846-3.134zm11.011.878c0-.126 0-.251.124-.376v-1.129c0-.125-.124-.376-.124-.501-.371-1.254-1.485-2.132-2.598-2.132-1.485 0-2.722 1.505-2.722 3.135 0 1.755 1.237 3.134 2.846 3.134.99.125 1.979-.752 2.474-2.131zm9.032-1.129l4.578-2.005c-.495-.878-1.238-1.129-1.856-1.129-1.856.125-2.97 2.131-2.722 3.134zm18.929-4.262c0-1.254-.989-2.132-2.35-2.132h-2.475v4.388h2.598c1.238 0 2.227-1.003 2.227-2.256z" fill="#444" stroke="#444" stroke-width="2" mask="url(#a)"/><path d="M62.598 15.194c0 1.017-.254 1.907-.887 2.542-.76.763-1.646 1.144-2.786 1.144-1.14 0-2.026-.381-2.785-1.144-.76-.762-1.14-1.652-1.14-2.796s.38-2.034 1.14-2.796C56.9 11.38 57.786 11 58.925 11c.507 0 1.013.127 1.52.381.507.255.886.509 1.14.89l-.633.635c-.507-.635-1.14-.89-2.027-.89-.76 0-1.52.255-2.026.89-.633.509-.886 1.271-.886 2.161 0 .89.253 1.652.886 2.16.633.51 1.267.89 2.026.89.887 0 1.52-.254 2.153-.89.38-.38.633-.889.633-1.524h-2.786v-1.017h3.673v.508zm5.824-3.177h-3.418v2.415h3.165v.89h-3.165v2.414h3.418v1.017h-4.431v-7.626h4.431v.89zm4.18 6.736h-1.014v-6.736h-2.152v-.89h5.318v.89H72.6v6.736zm5.824 0v-7.626h1.013v7.626h-1.013zm5.318 0h-1.013v-6.736H80.58v-.89h5.191v.89h-2.152v6.736h.126zm12.03-1.017c-.76.763-1.646 1.144-2.786 1.144-1.14 0-2.026-.381-2.786-1.144-.76-.762-1.14-1.652-1.14-2.796s.38-2.034 1.14-2.796C90.962 11.38 91.85 11 92.988 11c1.14 0 2.026.381 2.786 1.144.76.762 1.14 1.652 1.14 2.796s-.38 2.034-1.14 2.796zm-4.812-.635c.507.508 1.266.89 2.026.89.76 0 1.52-.255 2.026-.89a3.072 3.072 0 00.887-2.161c0-.89-.254-1.652-.887-2.16-.506-.51-1.266-.89-2.026-.89-.76 0-1.52.254-2.026.89a3.072 3.072 0 00-.886 2.16c0 .89.253 1.652.886 2.16zm7.344 1.652v-7.626h1.14l3.672 5.974v-5.974h1.013v7.626h-1.013l-3.925-6.228v6.228h-.886z" fill="#444"/><g clip-path="url(#clip0)" fill="#444" stroke="#444"><path d="M20.161 13.915l.013.008.014.007 16.585 8.718-3.97 3.73-13.667-12.84c.36.059.709.185 1.025.377zm-4.243 2.131c0-.368.087-.726.248-1.053L30.544 28.5 16.166 42.006a2.368 2.368 0 01-.248-1.053V16.046zM35.062 28.5l4.608-4.33 4.02 2.114c.886.465 1.393 1.295 1.393 2.216 0 .92-.507 1.75-1.392 2.216l-4.02 2.113-4.609-4.33zM20.188 43.069l-.013.007-.014.008a2.87 2.87 0 01-1.026.377l13.668-12.84 3.97 3.73-16.585 8.718z"/></g><defs><clipPath id="clip0"><path fill="#fff" transform="translate(14 13)" d="M0 0h33v31H0z"/></clipPath></defs></svg>