<svg width="18" height="12" fill="none" xmlns="http://www.w3.org/2000/svg"><path d="M18 2.597h-3.172a8.837 8.837 0 00-11.655 0H0s.72.877 1.012 1.699A4.38 4.38 0 000 7.096c0 2.487 2.014 4.5 4.5 4.5 1.474 0 2.779-.72 3.6-1.822l.945 1.823.866-1.811c.822 1.09 2.115 1.81 3.589 1.81 2.486 0 4.5-2.013 4.5-4.5a4.38 4.38 0 00-1.012-2.8c.292-.822 1.012-1.7 1.012-1.7zM4.5 10.472a3.385 3.385 0 01-3.375-3.375A3.385 3.385 0 014.5 3.722a3.385 3.385 0 013.375 3.375A3.385 3.385 0 014.5 10.472zm9 0a3.385 3.385 0 01-3.375-3.375A3.385 3.385 0 0113.5 3.722a3.385 3.385 0 013.375 3.375 3.385 3.385 0 01-3.375 3.375z" fill="#444"/></svg>