<svg width="18" height="18" fill="none" xmlns="http://www.w3.org/2000/svg"><path d="M9.245 0C4.312 0 1.688 3.161 1.688 6.609c0 1.598.893 3.592 2.323 4.224.217.098.335.056.384-.145.043-.153.23-.89.322-1.238a.318.318 0 00-.077-.312c-.475-.55-.852-1.55-.852-2.488 0-2.404 1.912-4.739 5.164-4.739 2.813 0 4.78 1.828 4.78 4.441 0 2.953-1.562 4.996-3.593 4.996-1.124 0-1.96-.882-1.695-1.973.32-1.3.95-2.697.95-3.634 0-.84-.475-1.536-1.445-1.536-1.144 0-2.072 1.133-2.072 2.654 0 .967.342 1.62.342 1.62l-1.343 5.426c-.355 1.445.049 3.786.084 3.988.021.111.146.146.216.055.111-.146 1.48-2.098 1.863-3.51l.712-2.598c.377.68 1.465 1.251 2.623 1.251 3.448 0 5.938-3.03 5.938-6.79C16.3 2.697 13.216 0 9.245 0z" fill="#444"/></svg>