<svg width="18" height="18" fill="none" xmlns="http://www.w3.org/2000/svg"><g clip-path="url(#clip0)"><path d="M14.936 9.771c-.29-.368-.207-.531 0-.86.004-.003 2.406-3.323 2.654-4.448l.001-.001c.123-.41 0-.712-.595-.712H15.03c-.502 0-.732.259-.856.548 0 0-1.002 2.399-2.42 3.954-.457.449-.669.593-.918.593-.124 0-.315-.144-.315-.555V4.463c0-.492-.14-.712-.555-.712H6.871c-.315 0-.501.23-.501.443 0 .467.708.574.782 1.887v2.847c0 .624-.113.739-.365.739-.668 0-2.292-2.408-3.254-5.165-.195-.534-.385-.75-.89-.75H.676C.113 3.75 0 4.01 0 4.299c0 .511.669 3.055 3.111 6.415 1.627 2.293 3.92 3.536 6.005 3.536 1.253 0 1.406-.276 1.406-.75 0-2.192-.114-2.4.514-2.4.291 0 .792.145 1.962 1.251 1.338 1.312 1.557 1.899 2.306 1.899h1.968c.56 0 .845-.276.681-.82-.374-1.146-2.903-3.502-3.017-3.659z" fill="#444"/></g><defs><clipPath id="clip0"><path fill="#fff" d="M0 0h18v18H0z"/></clipPath></defs></svg>