<svg width="15" height="15" viewBox="0 0 15 15" fill="none" xmlns="http://www.w3.org/2000/svg">
<g opacity="0.8" clip-path="url(#clip0)">
<path d="M0.0915527 7.72094L4.77905 12.4084C4.86879 12.4976 5.00215 12.5247 5.11963 12.4762C5.23652 12.428 5.31249 12.3138 5.31249 12.1875V11.5625C5.31249 11.4795 5.27953 11.4002 5.22094 11.3416L2.00437 8.125L14.6875 8.125C14.8602 8.12497 15 7.98522 15 7.81249V7.1875C15 7.01476 14.8602 6.87499 14.6875 6.87499L2.00437 6.87499L5.22094 3.65843C5.27953 3.59983 5.31249 3.5205 5.31249 3.43747V2.81248C5.31249 2.68612 5.23649 2.57201 5.11963 2.52379C5.08087 2.50762 5.04029 2.49997 5.00001 2.49997C4.91883 2.49997 4.83888 2.5317 4.77905 2.59152L0.0915527 7.27902C-0.0305271 7.4011 -0.0305271 7.59886 0.0915527 7.72094Z" fill="#11725D"/>
</g>
<defs>
<clipPath id="clip0">
<rect width="15" height="15" fill="white" transform="translate(15 15) rotate(-180)"/>
</clipPath>
</defs>
</svg>
