<svg width="15" height="11" viewBox="0 0 15 11" fill="none" xmlns="http://www.w3.org/2000/svg">
<path d="M14.9084 5.27906L10.2209 0.591564C10.1312 0.502443 9.99785 0.475285 9.88037 0.523801C9.76348 0.572023 9.68751 0.686164 9.68751 0.812492V1.43748C9.68751 1.52048 9.72047 1.59985 9.77906 1.65844L12.9956 4.875H0.31251C0.139775 4.87503 0 5.01478 0 5.18751V5.8125C0 5.98524 0.139775 6.12501 0.31251 6.12501H12.9956L9.77906 9.34157C9.72047 9.40017 9.68751 9.4795 9.68751 9.56253V10.1875C9.68751 10.3139 9.76351 10.428 9.88037 10.4762C9.91913 10.4924 9.95971 10.5 9.99999 10.5C10.0812 10.5 10.1611 10.4683 10.2209 10.4085L14.9084 5.72098C15.0305 5.5989 15.0305 5.40114 14.9084 5.27906Z" fill="#11725D"/>
</svg>
