<svg width="36" height="36" viewBox="0 0 36 36" fill="none" xmlns="http://www.w3.org/2000/svg">
<path d="M30.9043 30.007L22.8806 16.5317H13.2648L5.18722 30.0035C4.94353 30.4099 4.93735 30.9187 5.17095 31.3311C5.40454 31.7435 5.84393 31.9998 6.31792 31.9998H9.96215L17.3577 19.4387C17.4999 19.1973 17.759 19.0492 18.0392 19.049H18.0394C18.3195 19.049 18.5787 19.1971 18.7208 19.4385L26.1246 31.9998H29.7715C30.2447 31.9998 30.6839 31.7441 30.9177 31.333C31.1515 30.9216 31.1463 30.4134 30.9043 30.007Z" fill="#F8F8F8"/>
<path d="M18.0404 21.3987L11.7988 31.9999H24.2891L18.0404 21.3987Z" fill="#F8F8F8"/>
<path d="M21.9385 14.9499L19.0082 10.0289L21.3052 6.19807C21.5298 5.82337 21.4082 5.33743 21.0335 5.1129C20.6588 4.88795 20.1731 5.00969 19.9484 5.3844L18.0891 8.48522L16.244 5.38646C16.0205 5.01114 15.5352 4.88816 15.1596 5.11145C14.7843 5.33496 14.6611 5.82049 14.8846 6.19581L17.1652 10.0261L14.2129 14.9499H21.9385Z" fill="#F8F8F8"/>
</svg>
