<svg width="36" height="36" viewBox="0 0 36 36" fill="none" xmlns="http://www.w3.org/2000/svg">
<path d="M27.4038 13.4469C26.8954 8.34608 22.628 4.5 17.478 4.5C11.976 4.5 7.5 8.976 7.5 14.478C7.5 16.6527 8.18328 18.7138 9.47696 20.4403L16.7478 31.1114C16.9117 31.3545 17.1851 31.5 17.478 31.5C17.7709 31.5 18.0443 31.3545 18.2082 31.1114L25.459 20.4667C26.9659 18.4657 27.6566 15.9723 27.4038 13.4469ZM17.478 18.8801C15.0506 18.8801 13.0759 16.9055 13.0759 14.478C13.0759 12.0506 15.0506 10.076 17.478 10.076C19.9054 10.076 21.8801 12.0506 21.8801 14.478C21.8801 16.9055 19.9054 18.8801 17.478 18.8801Z" fill="#F8F8F8"/>
</svg>
