<svg width="20" height="20" viewBox="0 0 20 20" fill="none" xmlns="http://www.w3.org/2000/svg">
<path d="M9.08781 2.94082C9.3864 2.01792 10.6921 2.01792 10.9907 2.94082L12.0509 6.21765C12.1844 6.63028 12.5686 6.90983 13.0023 6.90983H16.4421C17.4098 6.90983 17.8132 8.14726 17.0315 8.71765L14.2413 10.7536C13.8923 11.0082 13.7463 11.4582 13.8793 11.8692L14.9433 15.158C15.2416 16.0801 14.1853 16.8449 13.4025 16.2737L10.6287 14.2497C10.2775 13.9935 9.801 13.9935 9.44982 14.2497L6.67606 16.2737C5.89319 16.8449 4.83687 16.0801 5.13518 15.158L6.19921 11.8692C6.33219 11.4582 6.18619 11.0082 5.8372 10.7536L3.04697 8.71765C2.26526 8.14726 2.66872 6.90983 3.63641 6.90983H7.07622C7.50991 6.90983 7.89416 6.63028 8.02766 6.21765L9.08781 2.94082Z" fill="#F8A502"/>
<mask id="mask0" mask-type="alpha" maskUnits="userSpaceOnUse" x="10" y="0" width="10" height="18">
<path d="M10.0376 0H19.9949V17.6H10.0376V0Z" fill="#C4C4C4"/>
</mask>
<g mask="url(#mask0)">
<path opacity="0.8" d="M9.08635 2.94082C9.38493 2.01792 10.6906 2.01792 10.9892 2.94082L12.0494 6.21765C12.1829 6.63028 12.5671 6.90983 13.0008 6.90983H16.4406C17.4083 6.90983 17.8118 8.14726 17.0301 8.71765L14.2398 10.7536C13.8909 11.0082 13.7449 11.4582 13.8778 11.8692L14.9419 15.158C15.2402 16.0801 14.1839 16.8449 13.401 16.2737L10.6272 14.2497C10.276 13.9935 9.79954 13.9935 9.44836 14.2497L6.6746 16.2737C5.89172 16.8449 4.8354 16.0801 5.13372 15.158L6.19775 11.8692C6.33073 11.4582 6.18472 11.0082 5.83574 10.7536L3.04551 8.71765C2.2638 8.14726 2.66726 6.90983 3.63494 6.90983H7.07475C7.50844 6.90983 7.8927 6.63028 8.0262 6.21765L9.08635 2.94082Z" fill="#EDF1F0"/>
</g>
</svg>
