<svg width="16" height="15" viewBox="0 0 16 15" fill="none" xmlns="http://www.w3.org/2000/svg">
<path d="M7.00578 0.940822C7.30437 0.0179167 8.61008 0.0179176 8.90867 0.940823L9.96882 4.21765C10.1023 4.63028 10.4866 4.90983 10.9203 4.90983H14.3601C15.3278 4.90983 15.7312 6.14726 14.9495 6.71765L12.1593 8.75357C11.8103 9.00822 11.6643 9.45818 11.7973 9.86921L12.8613 13.158C13.1596 14.0801 12.1033 14.8449 11.3204 14.2737L8.54666 12.2497C8.19548 11.9935 7.71897 11.9935 7.36779 12.2497L4.59403 14.2737C3.81116 14.8449 2.75484 14.0801 3.05315 13.158L4.11718 9.86921C4.25016 9.45818 4.10416 9.00822 3.75517 8.75357L0.964943 6.71765C0.183231 6.14726 0.586693 4.90983 1.55438 4.90983H4.99418C5.42787 4.90983 5.81213 4.63028 5.94563 4.21765L7.00578 0.940822Z" fill="#F8A502"/>
</svg>
