<svg width="36" height="36" viewBox="0 0 36 36" fill="none" xmlns="http://www.w3.org/2000/svg">
<path d="M18.4518 24.0039C17.0697 24.0039 15.9453 25.1246 15.9453 26.5015C15.9453 27.8788 17.0697 29 18.4518 29C19.8344 29 20.9588 27.8788 20.9588 26.5015C20.9588 25.1246 19.8341 24.0039 18.4518 24.0039Z" fill="#F8F8F8"/>
<path d="M24.5685 20.6008C22.9367 18.9699 20.7645 18.0713 18.453 18.0713C16.1504 18.0713 13.9842 18.964 12.3529 20.5846C11.694 21.2403 11.6928 22.3086 12.3501 22.9654C12.6694 23.2852 13.0945 23.4608 13.547 23.4608C13.9975 23.4608 14.421 23.2861 14.7398 22.9691C15.7326 21.9825 17.0513 21.439 18.453 21.439C19.86 21.439 21.1824 21.9859 22.1758 22.9784C22.4951 23.2973 22.92 23.4734 23.3721 23.4734C23.823 23.4734 24.2463 23.2987 24.5653 22.9816C25.2251 22.3259 25.2263 21.2581 24.5685 20.6008Z" fill="#F8F8F8"/>
<path d="M32.4239 12.7706C28.6931 9.04898 23.731 7 18.4526 7C13.1812 7 8.22408 9.04419 4.49446 12.7569C3.83556 13.4126 3.83511 14.4809 4.49354 15.1378C4.81261 15.4559 5.23705 15.6308 5.68863 15.6308C6.13998 15.6308 6.56396 15.4566 6.88303 15.1387C9.97452 12.0616 14.0832 10.3665 18.4526 10.3665C22.8283 10.3665 26.9411 12.065 30.0333 15.1503C30.3523 15.4687 30.7775 15.6443 31.2288 15.6443C31.6799 15.6443 32.1039 15.4691 32.4227 15.1517C33.0819 14.4955 33.0826 13.4268 32.4239 12.7706Z" fill="#F8F8F8"/>
<path d="M28.3957 16.7833C25.7401 14.1338 22.2087 12.6748 18.4519 12.6748C14.702 12.6748 11.1758 14.1292 8.52242 16.7694C8.20289 17.0871 8.02705 17.5097 8.02637 17.9597C8.02637 18.4092 8.20152 18.8323 8.52059 19.1504C8.83966 19.4688 9.26433 19.6444 9.71591 19.6444C10.1668 19.6444 10.5908 19.4693 10.9103 19.1522C12.926 17.1468 15.6044 16.042 18.4519 16.042C21.3053 16.042 23.9874 17.1507 26.0044 19.163C26.324 19.4818 26.7484 19.6574 27.2002 19.6574C27.6513 19.6574 28.0755 19.4823 28.3941 19.1648C28.7132 18.8471 28.8895 18.4245 28.8897 17.9745C28.8902 17.5245 28.7146 17.1019 28.3957 16.7833Z" fill="#F8F8F8"/>
</svg>
